<svg xmlns="http://www.w3.org/2000/svg" width="58" height="61" viewBox="0 0 58 61">
    <path fill="#70AD4D" fill-rule="nonzero" d="M28.639.117a.362.362 0 0 0-.351.361v4.757a40.201 40.201 0 0 1-1.205 1.89c-1.272 1.891-2.7 3.65-4.249 5.337-.102.116-.22.244-.322.36a48.842 48.842 0 0 1-2.248 2.241c-.155.141-.304.277-.465.418a48.443 48.443 0 0 1-2.475 2.146c-2.85 2.304-5.995 4.4-9.409 6.305l-.057.049h.067c.013.078.044.164.067.256.013.054.051.103.075.171.068.18.159.362.275.542.054.063.099.131.152.209.126.156.257.32.407.475l.237.19c.165.156.336.31.54.465.03.026.057.044.086.067v-.03a12.255 12.255 0 0 0 1.12.684c.082.043.177.089.265.132-.393 3.122-1.527 9.192-4.562 13.266l-.446-.475a1.533 1.533 0 0 0-2.162-.076L.602 43.048a1.526 1.526 0 0 0-.075 2.155l2.124 2.251c.573.613 1.532.64 2.144.067L8.18 44.34a1.526 1.526 0 0 0 .075-2.156l-.55-.589c3.264-4.205 4.518-10.307 4.98-13.768.126.053.253.107.389.16.102.04.215.057.312.096.32.117.67.235 1.015.342.117.038.234.075.36.113.438.127.871.244 1.347.361.15.039.324.075.493.114.194.054.385.104.589.143v-.009c.51.117 1.04.221 1.593.323l-.022.008c.18.026.38.052.56.076.782.131 1.574.25 2.41.352.082.004.163.021.246.03-.131 2.61-.677 9.516-2.78 14.528l-.474-.304a1.526 1.526 0 0 0-2.105.484l-2.485 3.932a1.527 1.527 0 0 0 .474 2.108l2.618 1.652c.709.452 1.645.23 2.096-.484l2.485-3.931a1.522 1.522 0 0 0-.474-2.108l-.769-.485c2.312-5.299 2.89-12.464 3.026-15.26a58.95 58.95 0 0 0 4.24.2v26.978c-5.08.058-9.077.675-9.077 1.424 0 .787 4.43 1.424 9.892 1.424 5.458 0 9.883-.637 9.883-1.424 0-.749-3.993-1.366-9.067-1.424V30.268a63.573 63.573 0 0 0 2.38-.076c.112 0 .22-.008.323-.008.524-.03 1.017-.089 1.527-.133.13 2.781.709 9.965 3.016 15.28l-.76.483a1.536 1.536 0 0 0-.474 2.108l2.476 3.932c.452.71 1.401.931 2.115.484l2.599-1.652c.709-.453.93-1.394.483-2.108l-2.485-3.932a1.534 1.534 0 0 0-2.105-.484l-.475.304c-2.107-5.022-2.657-11.951-2.788-14.548h.009c.233-.025.43-.048.664-.085a42.609 42.609 0 0 0 2.266-.323l.275-.039s-.004-.021-.021-.021a64.133 64.133 0 0 0 1.593-.294c.009 0 .013 0 .03-.008.112-.008.21-.052.322-.076.702-.154 1.394-.321 2.03-.513l.021-.008c.132-.039.246-.077.37-.114.282-.092.554-.178.826-.266.203-.068.393-.146.588-.21.111-.043.22-.084.332-.123.461 3.457 1.72 9.563 4.979 13.769l-.54.58a1.526 1.526 0 0 0 .066 2.155l3.386 3.19a1.52 1.52 0 0 0 2.153-.066l2.115-2.25a1.551 1.551 0 0 0-.085-2.166l-3.386-3.19a1.522 1.522 0 0 0-2.153.075l-.455.475c-3.035-4.079-4.16-10.158-4.553-13.275a.495.495 0 0 0 .095-.049c.15-.077.305-.15.436-.228.218-.116.399-.244.588-.36.117-.088.249-.164.36-.257.18-.126.32-.258.474-.39.097-.086.202-.163.294-.255.141-.141.25-.281.351-.437.064-.078.146-.155.2-.228.111-.17.173-.348.255-.513.026-.063.066-.131.095-.2.026-.077.044-.149.057-.237h.086l-.05-.057c-.029-.008-.055-.025-.085-.038-3.374-1.906-6.51-3.972-9.332-6.277a56.15 56.15 0 0 1-2.495-2.146c-.15-.14-.31-.286-.455-.427a42.3 42.3 0 0 1-2.247-2.232 7.283 7.283 0 0 1-.333-.36 44.54 44.54 0 0 1-5.444-7.217V3.119l2.542-1.254L28.975.602V.48c0-.195-.152-.361-.341-.361h.005zM28.63 5.9c.112.18.235.361.352.542a42.91 42.91 0 0 0 1.64 2.402 62.548 62.548 0 0 0 4.942 12.772 75.902 75.902 0 0 0 4.145 6.95c-.52.112-1.055.203-1.594.304a76.732 76.732 0 0 1-3.86-6.561c-2.35-4.541-4.117-9.136-5.283-13.74-.126-.501-.248-.99-.36-1.491-.102.462-.22.92-.332 1.386-1.156 4.643-2.918 9.265-5.292 13.845-1.132 2.183-2.438 4.378-3.851 6.561a55.121 55.121 0 0 1-1.593-.294 74.228 74.228 0 0 0 4.144-6.97A62.389 62.389 0 0 0 26.63 8.862a40.972 40.972 0 0 0 1.66-2.42c.111-.18.224-.362.34-.542z"/>
</svg>
