<svg xmlns="http://www.w3.org/2000/svg" width="91" height="51" viewBox="0 0 91 51">
    <path fill="#70AD4D" fill-rule="nonzero" d="M39.924 15.112a31.69 31.69 0 0 0-15.44 4.012l-6.187-6.512c7.035-5.493 15.62-8.912 24.939-9.39v12.064a31.821 31.821 0 0 0-3.312-.174zm36.296.54l-11.1 11.682c4.31 5.301 7.137 11.978 7.803 19.318H91c-1.111-12.256-6.591-23.171-14.78-31zM0 46.651h6.926c.93-10.26 6.082-19.225 13.605-24.947l-5.75-6.054C6.59 23.481 1.11 34.396 0 46.651zm72.62-33.955L42.088 48.836c-.128.17-.265.332-.414.49a1.93 1.93 0 0 1-.238.234c-2.134 1.995-5.402 1.917-7.447-.235-2.039-2.147-2.119-5.578-.237-7.825.07-.094.147-.183.236-.266.148-.156.304-.3.464-.434l22.286-20.866a32.03 32.03 0 0 0-8.972-3.84V3.223c7.332.377 14.208 2.574 20.233 6.168l9.45-8.847a1.967 1.967 0 0 1 2.799.086c.764.805.8 2.097.082 2.947l-7.632 9.031.006.005-.082.085zm-32.83 30.52a2.676 2.676 0 0 0-3.92 0c-1.082 1.138-1.08 2.986.001 4.126a2.677 2.677 0 0 0 3.92 0c1.082-1.14 1.082-2.986 0-4.126z"/>
</svg>
