<svg xmlns="http://www.w3.org/2000/svg" width="57" height="60" viewBox="0 0 57 60">
    <g fill="#70AD4D" fill-rule="nonzero">
        <ellipse cx="28.526" cy="15.768" rx="2.372" ry="2.368" transform="rotate(-45 28.526 15.768)"/>
        <path d="M34.63 9.58c-3.365-3.36-8.841-3.36-12.207 0l1.634 1.632a6.334 6.334 0 0 1 8.94 0l1.634-1.631z"/>
        <path d="M28.527 2.66c3.482 0 6.754 1.354 9.216 3.812l1.634-1.631A15.252 15.252 0 0 0 28.527.352a15.255 15.255 0 0 0-10.85 4.489l1.633 1.631a12.96 12.96 0 0 1 9.217-3.812zM52.67 30.807s-1.104.052-1.81.882c-.096.113-.264.124-.359.011l-6.292-7.495a.99.99 0 0 0-.708-.352H13.5a.993.993 0 0 0-.708.352L6.5 31.7c-.095.113-.263.102-.359-.01-.707-.83-1.81-.883-1.81-.883S.117 30.745.49 32.787c.295 1.623 2.507 2.035 3.404 2.135.17.02.256.213.16.353l-2.528 3.76a.986.986 0 0 0-.169.553v19.07c0 .547.444.99.992.99h8.417a.99.99 0 0 0 .99-.99v-2.681c0-.126.103-.229.23-.229h33.031c.126 0 .229.103.229.229v2.68c0 .548.444.99.991.99h8.417a.99.99 0 0 0 .991-.99v-19.07a.988.988 0 0 0-.168-.552l-2.528-3.76a.227.227 0 0 1 .16-.353c.897-.1 3.108-.512 3.403-2.134.373-2.043-3.841-1.981-3.841-1.981zM18.082 49.764c-.783.327-1.597.235-2.43.23l-2.684-.02c-.978-.006-2.122.036-3.021-.409-.788-.389-1.394-1.23-1.562-2.085a3.088 3.088 0 0 1 3.027-3.707c2.239 0 4.104 1.27 5.98 2.33.136.078.272.154.408.228.532.289 1.055.65 1.347 1.18.5.902-.215 1.899-1.065 2.253zm5.43-10.795c-3.481-.122-6.94-.424-10.404-.774-1.197-.12-5.235-.326-3.939-2.47l4.523-7.484a2.787 2.787 0 0 1 2.386-1.345h24.845c.976 0 1.88.51 2.385 1.345l4.523 7.484c1.151 1.903-1.22 2.033-2.368 2.193-7.258 1.008-14.63 1.307-21.95 1.051zm25.155 8.51c-.168.856-.773 1.696-1.561 2.086-.9.444-2.043.402-3.022.409l-2.683.018c-.833.006-1.647.098-2.43-.229-.85-.354-1.564-1.35-1.066-2.254.292-.53.816-.89 1.347-1.18.137-.074.273-.15.41-.227 1.875-1.06 3.74-2.33 5.979-2.33a3.089 3.089 0 0 1 3.026 3.707z"/>
    </g>
</svg>
