<svg xmlns="http://www.w3.org/2000/svg" xmlns:xlink="http://www.w3.org/1999/xlink" width="543" height="367" viewBox="0 0 543 367">
    <defs>
        <path id="a" d="M358.967 300l4.033-6.48s-5.191-2.74-3.355-7.52c-3.621 2.93-12.571 9.775-.678 14"/>
    </defs>
    <g fill="none" fill-rule="evenodd">
        <path fill="#A5AAB2" d="M195 355.5c0 5.799-36.04 10.5-80.5 10.5-44.459 0-80.5-4.701-80.5-10.5S70.041 345 114.5 345c44.46 0 80.5 4.701 80.5 10.5"/>
        <path fill="#27192A" d="M204.704 287a114.535 114.535 0 0 1-1.73 4.363c2.067 1.1 3.347 3.34 3.011 5.63-.42 2.863-3.203 4.716-6.217 4.14a5.978 5.978 0 0 1-1.342-.433 75.19 75.19 0 0 1-2.426 4.03c.95.491 1.984.86 3.084 1.07 5.728 1.096 11.017-2.426 11.815-7.866.663-4.523-1.992-8.94-6.195-10.934"/>
        <path fill="#27192A" d="M213.352 299.928c.28-1.566 2.141-2.58 4.156-2.265 2.015.316 3.42 1.842 3.14 3.408-.28 1.567-2.141 2.581-4.156 2.266-2.015-.316-3.42-1.842-3.14-3.409zm-3.284-.515c-.533 2.978 2.138 5.878 5.966 6.478 3.83.6 7.365-1.327 7.898-4.305.533-2.977-2.138-5.877-5.966-6.477-3.83-.6-7.365 1.328-7.898 4.304z"/>
        <path fill="#33414C" d="M205.483 299.282l8.138 1.672c1.037.213 2.078-.338 2.326-1.232.248-.894-.393-1.79-1.43-2.004l-8.138-1.672c-1.037-.213-2.078.338-2.326 1.232-.248.893.393 1.79 1.43 2.004"/>
        <path fill="#27192A" d="M227.33 300.846c-.169-1.587 1.338-3.028 3.365-3.22 2.027-.19 3.807.942 3.976 2.528.168 1.587-1.339 3.028-3.366 3.22-2.027.19-3.807-.942-3.976-2.528zm-3.306.31c.32 3.016 3.703 5.167 7.556 4.804 3.852-.363 6.716-3.1 6.396-6.117-.32-3.015-3.703-5.166-7.556-4.803-3.852.363-6.716 3.1-6.396 6.117z"/>
        <path fill="#33414C" d="M218.955 302.999l8.21-.255a1.883 1.883 0 0 0 1.834-1.93 1.886 1.886 0 0 0-1.954-1.813l-8.21.255a1.882 1.882 0 0 0-1.834 1.93 1.885 1.885 0 0 0 1.954 1.813"/>
        <path fill="#27192A" d="M238.266 297.405c-.613-1.562.338-3.456 2.124-4.232 1.786-.775 3.731-.138 4.344 1.423.613 1.561-.338 3.455-2.124 4.231-1.786.776-3.731.139-4.344-1.422zm-2.912 1.264c1.165 2.967 4.861 4.177 8.256 2.703 3.395-1.473 5.201-5.074 4.036-8.04-1.165-2.968-4.861-4.178-8.256-2.704-3.394 1.474-5.201 5.074-4.036 8.04z"/>
        <path fill="#33414C" d="M232.373 300.907l7.398-2.446a1.771 1.771 0 0 0 1.135-2.249 1.806 1.806 0 0 0-2.279-1.12l-7.398 2.447a1.772 1.772 0 0 0-1.135 2.249 1.806 1.806 0 0 0 2.28 1.12"/>
        <path fill="#27192A" d="M250.78 292.324c-1.24-1.065-1.252-3.193-.025-4.753 1.225-1.56 3.224-1.96 4.465-.895 1.24 1.065 1.251 3.194.025 4.753-1.226 1.56-3.225 1.96-4.465.895zm-1.998 2.543c2.356 2.024 6.155 1.263 8.485-1.701 2.33-2.964 2.308-7.008-.049-9.033-2.356-2.025-6.155-1.263-8.485 1.701-2.33 2.964-2.308 7.008.049 9.033z"/>
        <path fill="#33414C" d="M244.716 295.81l7.252-3.453c.925-.44 1.297-1.507.832-2.381-.465-.875-1.592-1.227-2.516-.786l-7.252 3.453c-.925.44-1.297 1.506-.832 2.38.465.875 1.592 1.228 2.516.787"/>
        <path fill="#27192A" d="M259.797 281.542c-1.612-.557-2.38-2.595-1.715-4.551.664-1.956 2.51-3.09 4.12-2.533 1.613.557 2.38 2.595 1.716 4.55-.664 1.957-2.51 3.09-4.12 2.534zm-1.083 3.188c3.063 1.06 6.57-1.096 7.832-4.813 1.262-3.717-.197-7.59-3.26-8.647-3.063-1.06-6.57 1.096-7.832 4.813-1.262 3.717.197 7.589 3.26 8.647z"/>
        <path fill="#33414C" d="M256.272 288.344l5.275-6.212a1.916 1.916 0 0 0-.192-2.671 1.84 1.84 0 0 0-2.626.195l-5.276 6.211a1.918 1.918 0 0 0 .192 2.672 1.84 1.84 0 0 0 2.627-.195"/>
        <path fill="#27192A" d="M261.666 268.606c-1.53-.415-2.397-2.365-1.937-4.356.461-1.991 2.075-3.27 3.605-2.856 1.53.415 2.397 2.365 1.936 4.356-.46 1.991-2.074 3.27-3.604 2.856zm-.752 3.246c2.908.787 5.975-1.642 6.851-5.426.875-3.784-.771-7.49-3.68-8.278-2.907-.787-5.974 1.642-6.85 5.426-.875 3.784.771 7.49 3.68 8.278z"/>
        <path fill="#33414C" d="M264.485 276.203l.512-8.206c.066-1.046-.885-1.94-2.123-1.994-1.237-.056-2.293.748-2.359 1.794l-.512 8.206c-.065 1.046.885 1.939 2.123 1.994 1.237.056 2.293-.748 2.359-1.794"/>
        <path fill="#27192A" d="M262.581 254.73c-1.557-.62-2.184-2.57-1.4-4.353.783-1.784 2.68-2.727 4.238-2.107 1.557.62 2.185 2.57 1.4 4.353-.783 1.784-2.68 2.727-4.238 2.107zm-1.277 2.908c2.959 1.179 6.565-.614 8.054-4.004 1.49-3.39.298-7.093-2.661-8.272-2.96-1.179-6.566.614-8.055 4.004-1.49 3.39-.298 7.093 2.662 8.272z"/>
        <path fill="#33414C" d="M265 262.1l-.021-8.21c-.003-1.046-.896-1.893-1.995-1.89-1.098.003-1.986.853-1.984 1.9l.022 8.21c.003 1.046.895 1.892 1.994 1.89 1.098-.003 1.987-.853 1.984-1.9"/>
        <path fill="#27192A" d="M268.631 243.162c-1.028-1.271-.578-3.27 1.007-4.463 1.584-1.194 3.702-1.131 4.73.14 1.029 1.27.578 3.268-1.006 4.462s-3.702 1.132-4.731-.14zm-2.582 1.946c1.954 2.415 5.98 2.534 8.99.265 3.01-2.27 3.867-6.066 1.912-8.482-1.955-2.414-5.98-2.533-8.99-.264-3.01 2.27-3.867 6.066-1.912 8.481z"/>
        <path fill="#33414C" d="M265.262 251.347l5.283-6.206c.673-.79.59-1.99-.185-2.676a1.833 1.833 0 0 0-2.622.188l-5.283 6.206c-.673.791-.59 1.99.185 2.676.775.687 1.95.603 2.622-.188"/>
        <path fill="#27192A" d="M284.63 246c.205-.746.413-1.492.605-2.242.03-.118.057-.237.086-.356-.29.018-.586.01-.889-.032-1.98-.274-3.392-1.776-3.154-3.354.237-1.578 2.035-2.635 4.015-2.361.376.052.732.15 1.06.282.173-.866.378-1.724.647-2.564a8.56 8.56 0 0 0-1.32-.29c-3.762-.522-7.179 1.487-7.63 4.486-.452 3 2.232 5.853 5.995 6.374.196.027.391.044.586.057"/>
        <path fill="#33414C" d="M273.99 242.998l8.207-.385c1.046-.049 1.852-.897 1.8-1.894-.051-.997-.94-1.766-1.986-1.717l-8.208.385c-1.046.049-1.852.897-1.8 1.894.05.997.94 1.766 1.986 1.717M203.061 293.688c-27.165 52.777-91.971 73.539-144.749 46.373C5.535 312.895-15.227 248.09 11.94 195.312c27.166-52.777 91.972-73.539 144.749-46.373 52.777 27.165 73.539 91.971 46.373 144.749"/>
        <path fill="#232323" d="M198.662 293.088c-24.105 50.292-82.67 69.532-130.808 42.974-48.138-26.558-67.62-88.858-43.516-139.15 24.105-50.292 82.67-69.532 130.808-42.974 48.138 26.558 67.62 88.858 43.516 139.15"/>
        <text fill="#FFF" font-family="AvenirNextCondensed-Heavy, Avenir Next Condensed" font-size="32" font-style="condensed" font-weight="600" letter-spacing="2.065" transform="rotate(-30 110.25 246.578)">
            <tspan x="62.055" y="236.578">DOWN</tspan> <tspan x="38.75" y="278.578">PAYMENT</tspan>
        </text>
        <path fill="#A5AAB2" d="M33.37 175.166c8.322-2.753-4.803 29.661-15.793 31.733-10.991 2.073 5.953-28.478 15.794-31.733M11.291 211.142c4.502-1.71 3.005 12.527-1.641 14.654-4.646 2.127-2.597-13.044 1.641-14.654"/>
        <path fill="#33414C" d="M304.523 219.984c-.965-.131-1.64-1.007-1.506-1.957l1.472-10.527c.133-.95 1.023-1.614 1.988-1.484.965.132 1.64 1.008 1.506 1.958l-1.472 10.527c-.133.95-1.023 1.613-1.988 1.483M326.437 234.964a1.783 1.783 0 0 1-1.137-.775 1.835 1.835 0 0 1 .499-2.521l9.42-6.364a1.772 1.772 0 0 1 2.481.508 1.836 1.836 0 0 1-.499 2.52l-9.42 6.364c-.412.278-.895.36-1.344.268M319.354 224.975a1.65 1.65 0 0 1-1.085-2.523l3.719-5.707a1.636 1.636 0 0 1 2.27-.476 1.65 1.65 0 0 1 .474 2.28l-3.72 5.706a1.638 1.638 0 0 1-1.658.72M289.483 222c-.586-.02-1.13-.462-1.344-1.166a351.05 351.05 0 0 0-2.037-6.411c-.297-.914.078-1.943.836-2.3.76-.358 1.615.094 1.912 1.006a358.288 358.288 0 0 1 2.06 6.485c.28.92-.114 1.94-.878 2.278-.181.079-.367.114-.549.107"/>
        <path fill="#A5AAB2" d="M530 355.5c0 6.352-46.114 11.5-103 11.5-56.885 0-103-5.148-103-11.5 0-6.351 46.115-11.5 103-11.5 56.886 0 103 5.149 103 11.5"/>
        <path fill="#B8D6A7" d="M384.967 127c14.47 34 37.67 58.582 68.033 75.434L446.741 212c-34.199-11.825-61.885-32.958-76.741-72.428L384.967 127"/>
        <path fill="#789B64" d="M436.547 192c-1.238 4.777-2.793 9.513-4.547 14.183A165.17 165.17 0 0 0 446.645 212l6.355-9.665A169.91 169.91 0 0 1 436.547 192"/>
        <path fill="#B8D6A7" d="M487.543 268c-8.778-8.848-52.024-22.002-66.543-19.133 6.603-23.493 22.766-42.405 31.036-49.81 13.73-.395 41.236 1.12 46.964 8.767-3.74 18.246-6.464 43.384-11.457 60.176"/>
        <path fill="#2A343E" d="M370.95 322.187c-1.371-5.867-18.65-22.22-22.422-21.136-5.614 1.613 5.395 33.304 14.324 32.946 2.146-.086 8.79-8.844 8.098-11.81"/>
        <path fill="#FFC88B" d="M496.443 204.004c-18.512 3.22-30.983-2.232-40.883-4.166-29.754-26.89-28.394-49.194-12.122-88.949 6.076-14.847 70.794-5.807 74.823 3.237 4.035 9.045-9.19 63.58-21.818 89.878"/>
        <path fill="#232323" d="M504.642 113.086c.095-3.572-40.431 6.37-48.505-15.752-8.074-22.12 28.745-9.886 51.074 1.143 9.113-2.573 31.215-.124 9.604 50.523-7.108-14.548-12.458-24.992-12.173-35.914"/>
        <path fill="#2A0000" d="M445.997 134.575c-.069 3.037-1.242 5.466-2.622 5.424-1.378-.04-2.44-2.536-2.372-5.574.069-3.037 1.243-5.466 2.622-5.424 1.379.04 2.441 2.536 2.372 5.574M485.997 136.575c-.069 3.037-1.243 5.466-2.622 5.424-1.378-.04-2.44-2.537-2.372-5.574.07-3.037 1.243-5.466 2.622-5.424 1.379.04 2.44 2.536 2.372 5.574"/>
        <path fill="#FF8663" d="M464.164 152.466c-2.305 3.39-20.775.575-20.148-2.77.627-3.344 8.367-14.428 12.12-14.652 1.147-.069 4.54-.267 5.914 1.453 1.373 1.72 4.419 12.58 2.114 15.969"/>
        <path fill="#D83536" d="M446 160.455c6.553 2.866 31.74 3.644 43.559-2.455 2.315 14.442-4.548 30.657-18.981 28.863C451.469 184.49 446 160.455 446 160.455"/>
        <path fill="#232323" d="M521.386 125.677c-3.285 2.39-6.775 4.294-10.433 5.995-.649.302-1.298.603-1.953.903 2.05 5.267 4.75 10.944 7.78 17.425 4.562-11.162 7.11-20.01 8.22-27a186.585 186.585 0 0 1-3.614 2.677"/>
        <path fill="#FFC88B" d="M513.024 146.162s8.913-9.415 15.868.075c8.044 10.977-8.672 33.195-20.892 21.41 2.262-8.536 5.024-21.485 5.024-21.485"/>
        <path fill="#FF9A7C" d="M514.147 150.854s8.25-5.306 9.64 2.035c1.633 8.655-6.475 13.802-12.787 9.646 1.271-4.57 3.147-11.681 3.147-11.681"/>
        <path fill="#EDF0DC" d="M489.871 167.022a39.21 39.21 0 0 0-.308-9.022c-11.82 6.425-37.009 5.605-43.563 2.587 0 0 .642 2.967 2.251 6.97 11.244 4.344 27.082 5.015 41.62-.535"/>
        <path fill="#232323" d="M455.385 89c-.67 1.881-.494 4.438.749 7.8 4.045 10.944 16.152 17.131 45.866 14.658-34.877-4.133-42.022-11.934-46.615-22.458"/>
        <path fill="#232323" d="M432.888 88.082c4.936-8.812 22.13-10.002 26.756 9.761 2.346 10.021 12.622 14.646 6.364 18.085-9.603 5.278-43.277-9.713-33.12-27.846"/>
        <path fill="#232323" d="M434 103c6.443 10.25 25.312 16.587 32.053 12.979 3.175-1.7 1.996-3.705-.193-6.572 1.28 4.876-16.749 6.38-31.86-6.407"/>
        <path fill="#FF544C" d="M454.959 149.964l-.38-.01a29.574 29.574 0 0 1-9.843-1.954c-.373.749-.627 1.394-.72 1.873-.628 3.207 17.844 5.907 20.149 2.656.66-.93.88-2.45.828-4.18-3.156 1.296-6.5 1.836-10.034 1.615"/>
        <path fill="#2A343E" d="M471.303 343.053c6.115-.748 27.687 6.583 28.67 10.474 1.09 4.32-30.753 5.142-34.748-.607-1.251-1.8 2.985-9.488 6.078-9.867"/>
        <path fill="#789B64" d="M450.406 197.129c5.804-.046 29.625-1.586 49.438 7.336l.156 4.278L469.24 212 461 201.293l-8.436 7.733-3.564-9.87 1.406-2.027"/>
        <path fill="#2A343E" d="M420.874 248.778c19.057-3.384 48.053 4.499 66.126 19.17-3.33 13.514-21.41 14.295-40.492 9.023-19.081-5.273-29.74-17.882-25.634-28.193"/>
        <path fill="#D33C14" d="M455.71 200.654c2.42-2.054 13.096 1.148 12.241 3.852-.854 2.705-5.526 5.563-8.83 4.095-3.305-1.468-5.25-6.385-3.41-7.947M458.976 211.001c-2.81-.216-9.528 26.016-8.94 29.57.588 3.553 4.634 8.25 6.903 8.425 2.269.174 6.418-4.768 6.99-9.11.574-4.34-2.473-28.693-4.953-28.885"/>
        <path fill="#2A343E" d="M426.391 259c-20.95 9.913-47.221 29.406-64.391 53.165 0 0 8.35 17.679 9.027 16.804 25.835-33.413 51.1-51.532 64.973-58.574L426.391 259M466 278.946c24.394 22.245 14.627 44.233 3.975 63.556L485.647 345c15.893-30.496 12.878-51.702-4.863-70L466 278.946"/>
        <path fill="#B8D6A7" d="M492 212.791c22.925-22.802 41.633-60.517 24.245-108.37L535.989 101c20.358 52.703-6.743 103.841-41.235 126L492 212.791"/>
        <path fill="#FFAC79" d="M517.063 108.526c-4.46-2.61-16.638-5.328-14.893-10.142 2.144-5.922 8-9.384 8-9.384l11.876 1.402s12.716-1.909 14.766 3.614c2.044 5.522 4.177 13.398-1.239 16.713-5.888 2.834-14.055.408-18.51-2.203M391.969 130.987c2.237-4.593 5.227-9.234.583-14.344-4.645-5.11-9.186-3.35-9.186-3.35l-9.006 7.773s-13.613 7.76-12.266 13.345c1.345 5.584 5.287 10.937 11.565 10.571 7.239-.535 16.071-9.4 18.31-13.995"/>
        <path fill="#9B9B9B" d="M447.303 20L433 60.696s21.171 3.441 26.893-12.838C465.613 31.58 447.303 20 447.303 20"/>
        <path fill="#4A4A4A" d="M443.384 47.714c2.05-4.776 4.023-9.606 5.659-14.529 1.07-3.224 1.952-6.5 2.957-9.742-2.46-2.212-4.435-3.443-4.435-3.443L433 60.699s1.826.288 4.55.301c1.924-4.437 3.926-8.843 5.834-13.286"/>
        <path fill="#2A343E" d="M427.904 62.015c-2.532.191-12.856 5.8-15.396 7.634-2.539 1.835-50.77 68.202-51.476 70.284-.706 2.081 10.39 7.833 12.705 5.533 2.313-2.3 42.94-66.617 45.479-68.451 2.539-1.835 10.482-10.113 10.61-11.62.127-1.507.833-3.589-1.922-3.38"/>
        <path fill="#9B9B9B" d="M400.736 31L431 62.624s-17.274 12.316-29.38-.334c-12.106-12.65-.884-31.29-.884-31.29"/>
        <path fill="#4A4A4A" d="M416.188 54.374c-3.891-3.479-7.738-7.04-11.328-10.823-2.352-2.478-4.56-5.082-6.86-7.603 1.198-3.019 2.398-4.948 2.398-4.948L431 61.849s-1.48 1.015-3.872 2.151c-3.632-3.225-7.319-6.389-10.94-9.626"/>
        <path fill="#2A343E" d="M437.448 60.891c2.384-.914 13.748-2.314 16.841-1.768 3.093.546 86.941 37.482 88.475 39.034 1.533 1.552-4.78 11.824-7.87 10.767-3.083-1.057-80.458-39.82-83.552-40.367-3.093-.545-13.435-2.543-14.195-3.831-.761-1.287-2.293-2.84.3-3.835"/>
        <path fill="#789B64" d="M439.999 62.634A7.5 7.5 0 1 1 425 62.366a7.5 7.5 0 0 1 14.998.268"/>
        <path fill="#B8D6A7" d="M435 62.562a3.5 3.5 0 1 1-7-.126 3.5 3.5 0 0 1 7 .126"/>
        <path fill="#FFC78A" d="M381.238 122.694c6.838 3.716 11.345-4.865 3.973-9.319-1.287-.777-10.062-7.093-13.367-3.014-3.305 4.08-2.067 7.412-2.067 7.412s-3.264 5.224-4.998 10.052c-2.426.175-3.79 3.69-1.875 6.829 2.978 4.881 12.305 9.391 15.398 3.67 3.153-.881 3.986-3.376 4.372-5.7 2.662-.854 3.99-2.983 3.28-5.76-.527-2.063-4.716-4.17-4.716-4.17"/>
        <path fill="#EB8B60" d="M372 119s4.737.764 9 4c-4.535-1.372-9-4-9-4M381.897 132.784c-3.934-1.457-6.327-1.982-10.505-4.674-.293-.188-.536-.129-.292.13 2.788 2.97 6.926 4.02 10.661 4.753.214.043.34-.133.136-.209M368 133s4.337 4.116 9 4.996c-4.615.152-8.286-3.838-9-4.996"/>
        <path fill="#FFC78A" d="M396.487 117.027c-1.365-3.09-15.618 1.183-10.306 7.631 3.155 3.83 13.184-1.11 10.306-7.63M515.567 95.164c-3.603 7.145-12.328 2.412-8.703-5.674.634-1.412 4.365-11.906 9.494-10.33 5.123 1.577 6.003 5.148 6.003 5.148s6.835 3.646 11.07 6.774c1.942-.429 5.36.498 5.556 4.295.314 5.905-4.966 18.701-11.952 11.465-3.153 1.074-5.29-.579-6.952-2.344-2.726.812-5.072-.242-6.076-3.03-.74-2.072 1.56-6.304 1.56-6.304"/>
        <path fill="#EB8B60" d="M521 87s-3.326 3.173-5 8c2.851-3.533 5-8 5-8M521.037 103.806c2.27-3.673 3.844-5.59 5.659-10.501.128-.345.348-.44.296-.063-.603 4.316-3.245 7.753-5.745 10.667-.143.167-.327.087-.21-.103M533.99 96s-1.278 5.755-4.99 9c4.345-2.361 5.096-7.654 4.99-9"/>
        <path fill="#FFC78A" d="M501 96.933c-.098-3.278 13.561-7.244 12.982.756-.342 4.753-12.744 6.953-12.981-.756"/>
        <path fill="#A5AAB2" d="M447.41 0l-5.98 13.085-9.43.467 8.97 2.57s-3.22 13.553-3.22 12.852c0-.701 6.44-12.15 6.44-12.15l10.81-.235-9.89-3.27L447.41 0"/>
        <path fill="#33414C" d="M390.04 318.325l9.876-3.325s5.748 6.352 1.55 12.846C394.704 332.649 389 335 389 335s5.76-10.174 1.04-16.675"/>
        <path fill="#33414C" d="M382 328.873l7.329-2.873s1.876 4.204 6.671 3.675c-2.844 2.424-9.837 8.797-14-.802"/>
        <path fill="#A5AAB2" d="M388.324 319.196L390.03 317s7.488 7.867 1.893 14.428c-5.71 6.697-11.924-1.799-11.924-1.799l1.857-2.037s3.867 6.466 7.54 2.812c5.12-5.09-1.073-11.208-1.073-11.208"/>
        <path fill="#27192A" d="M353.797 290.165c-1.76-1.02-2.32-2.734-1.327-4.18 1.115-1.623 2.526-1.274 4.527.353.839-.832 2.082-2.254 1.999-2.374-2.942-4.194-7.493-3.594-9.727-.342-2.058 2.995-2.051 6.952 3.346 9.378.608-.953.501-1.896 1.182-2.835"/>
        <g>
            <use fill="#27192A" xlink:href="#a"/>
            <use fill="#33414C" xlink:href="#a"/>
        </g>
        <path fill="#33414C" d="M354 290.997l5.287-8.616s8.228-5.834 18.713.763c-.761 2.828-3.603 8.856-3.603 8.856s-13.686-5.852-20.397-1.003"/>
        <path fill="#A5AAB2" d="M358.663 301.495s-7.854-3.794-3.441-8.757c4.136-4.652 17.57 1.636 17.57 1.636l2.208-1.59s-14.61-7.266-20.807-1.661c-6.199 5.605 2.713 10.877 2.713 10.877l1.757-.505"/>
        <path fill="#27192A" d="M357.317 281c.005.046.014.092.016.138l.005.072c.084 1.293-.38 2.477-1.174 3.467-.051.064-.11.12-.164.18.536.26 1.117.645 1.752 1.143.94-.902 2.337-2.444 2.244-2.574-.807-1.11-1.722-1.902-2.679-2.426M341.913 285.516c-1.672-1.053-2.318-3.033-1.443-4.423.876-1.39 2.943-1.662 4.616-.61 1.673 1.054 2.32 3.034 1.444 4.424-.877 1.39-2.943 1.662-4.617.61zm4.602-7.298c-3.18-2-7.107-1.482-8.772 1.158-1.665 2.641-.437 6.404 2.743 8.406 3.18 2.001 7.106 1.483 8.771-1.158 1.665-2.642.437-6.405-2.742-8.406z"/>
        <path fill="#33414C" d="M353.52 286.94l-8.108-1.865c-1.033-.238-1.632-1.105-1.337-1.938.295-.832 1.372-1.314 2.405-1.076l8.108 1.864c1.033.238 1.632 1.105 1.337 1.938-.295.832-1.372 1.314-2.405 1.076"/>
        <path fill="#27192A" d="M331.651 275.303c-1.165-1.605-1.058-3.713.24-4.71 1.297-.995 3.293-.501 4.459 1.104 1.164 1.605 1.057 3.714-.24 4.709-1.298.996-3.294.502-4.459-1.103zm6.814-5.23c-2.214-3.049-6.008-3.988-8.473-2.095-2.466 1.892-2.67 5.898-.457 8.948 2.214 3.05 6.008 3.989 8.473 2.097 2.466-1.893 2.67-5.9.457-8.95z"/>
        <path fill="#33414C" d="M340.718 283.34l-5.268-6.217a1.908 1.908 0 0 1 .2-2.667 1.85 1.85 0 0 1 2.632.203l5.268 6.218a1.909 1.909 0 0 1-.2 2.667 1.85 1.85 0 0 1-2.632-.204"/>
        <path fill="#27192A" d="M325.256 263.75c-.862-1.757-.331-3.742 1.184-4.432 1.516-.691 3.443.174 4.305 1.932.861 1.758.33 3.742-1.185 4.433-1.516.69-3.443-.175-4.304-1.933zm7.96-3.625c-1.638-3.34-5.3-4.985-8.18-3.674-2.88 1.313-3.888 5.084-2.252 8.425 1.638 3.34 5.3 4.984 8.18 3.673 2.88-1.312 3.889-5.084 2.251-8.424z"/>
        <path fill="#33414C" d="M330.813 273.026l-3.596-7.196c-.46-.917-.166-2.076.655-2.588.82-.512 1.857-.185 2.315.733l3.597 7.195c.458.917.164 2.076-.656 2.588-.82.512-1.857.184-2.315-.732"/>
        <path fill="#27192A" d="M320.41 248.394a7.331 7.331 0 0 0-.823-.394c-.104.293-.538 1.945-.568 2.587.073.036.147.06.219.1 1.608.91 2.33 2.79 1.61 4.196-.664 1.3-2.323 1.727-3.84 1.07-.33.802-.668 1.6-1.008 2.398 2.928 1.357 6.183.534 7.47-1.984 1.367-2.673-.002-6.243-3.06-7.973"/>
        <path fill="#33414C" d="M324.924 260.564l-6.248-5.228a1.892 1.892 0 0 1-.242-2.656c.663-.801 1.846-.91 2.642-.244l6.248 5.228c.796.667.905 1.856.242 2.656-.663.801-1.845.91-2.642.244"/>
    </g>
</svg>
