<svg xmlns="http://www.w3.org/2000/svg" xmlns:xlink="http://www.w3.org/1999/xlink" width="150" height="120" viewBox="0 0 150 120">
    <defs>
        <path id="a" d="M0 0h150v120H0z"/>
    </defs>
    <g fill="none" fill-rule="evenodd">
        <mask id="b" fill="#fff">
            <use xlink:href="#a"/>
        </mask>
        <use fill="#FFF" xlink:href="#a"/>
        <g mask="url(#b)">
            <g transform="translate(14 45)">
                <path fill="#BD252A" fill-rule="nonzero" d="M82.692 43H3.308C1.48 43 0 44.432 0 46.2v1.6C0 49.568 1.48 51 3.308 51h79.384C84.52 51 86 49.568 86 47.8v-1.6c0-1.768-1.48-3.2-3.308-3.2z"/>
                <path fill="#8E1C20" fill-rule="nonzero" d="M4.8 47.8v-1.6A3.2 3.2 0 0 1 8 43H3.2A3.2 3.2 0 0 0 0 46.2v1.6A3.2 3.2 0 0 0 3.2 51H8a3.2 3.2 0 0 1-3.2-3.2z"/>
                <path fill="#D14343" fill-rule="nonzero" d="M78.1 22.79l-4.975-2.944-4.457-13.06C67.286 2.734 63.405 0 59.033 0H27.967c-4.372 0-8.254 2.734-9.637 6.786l-4.455 13.06-5.421 2.812A8.277 8.277 0 0 0 4 30.006V43h79V30.353a8.272 8.272 0 0 0-4.9-7.563z"/>
                <path fill="#FFAB50" fill-rule="nonzero" d="M71.479 16.538h8.229v3.308h-8.229zM7.292 16.538h8.229v3.308H7.292z"/>
                <path fill="#C6D1D6" fill-rule="nonzero" d="M13 20.571L27.172 24H60.83L75 20.571 70.336 7.034C68.89 2.834 64.83 0 60.254 0H27.746c-4.575 0-8.637 2.834-10.084 7.034L13 20.57z"/>
                <path fill="#BE262A" fill-rule="nonzero" d="M13.13 23.794l3.7-1.961L13.6 21l-5.27 2.794C5.67 25.204 4 28.02 4 31.093V44h4.8V31.092c0-3.072 1.67-5.888 4.33-7.297z"/>
                <path fill="#32373F" fill-rule="nonzero" d="M16.75 60h-6.5C8.454 60 7 58.568 7 56.8V52h13v4.8c0 1.768-1.454 3.2-3.25 3.2zM75.75 60h-6.5C67.454 60 66 58.568 66 56.8V52h13v4.8c0 1.768-1.454 3.2-3.25 3.2z"/>
                <path fill="#FDD38D" fill-rule="nonzero" d="M72.05 36H57.2v-3c0-1.657 1.477-3 3.3-3H77v1.5c0 2.486-2.216 4.5-4.95 4.5zM15.95 36H30.8v-3c0-1.657-1.477-3-3.3-3H11v1.5c0 2.486 2.216 4.5 4.95 4.5z"/>
                <ellipse cx="18.143" cy="47" fill="#FCB641" fill-rule="nonzero" rx="4.143" ry="4"/>
                <ellipse cx="67.857" cy="47" fill="#FCB641" fill-rule="nonzero" rx="4.143" ry="4"/>
                <path fill="#FDC567" fill-rule="nonzero" d="M32 43h23v11H32z"/>
                <path fill="#BE262A" fill-rule="nonzero" d="M35 35.667h17V39H35zM35 29h17v3.333H35z"/>
                <path fill="#A0B2BA" fill-rule="nonzero" d="M38 5h10v3H38z"/>
                <path fill="#A0B2BA" fill-rule="nonzero" d="M22.82 7.74C24.265 3.717 28.322 1 32.893 1h-5.161c-4.57 0-8.628 2.716-10.073 6.74L13 20.715 27.157 24h5.162L18.16 20.714l4.66-12.973z" opacity=".5"/>
                <path fill="#32373F" fill-rule="nonzero" d="M16.75 60h-6.5C8.454 60 7 58.568 7 56.8V52h13v4.8c0 1.768-1.454 3.2-3.25 3.2z"/>
            </g>
            <g fill-rule="nonzero">
                <path fill="#CAD3DB" d="M121.186 91.238a1.942 1.942 0 0 1-1.943-1.944v-64.16a1.942 1.942 0 1 1 3.885 0v64.16a1.942 1.942 0 0 1-1.942 1.944z"/>
                <path fill="#32373F" d="M109.53 104.848h23.31v-7.777h-23.31z"/>
                <path fill="#95ACB9" d="M115.357 97.071h11.656v-7.777h-11.656z"/>
                <path fill="#70AD4D" d="M104 21.748v12.156c0 8.56 4.89 16.399 12.66 20.293.515.259 1.042.5 1.581.725L120.79 56l2.258-.965C131.513 51.4 136.988 43.198 137 34.13V21.748L120.73 13 104 21.748z"/>
                <path fill="#FFF" d="M128.587 29.69a1.824 1.824 0 0 0-2.59-.271l-8.621 7.113-3.133-3.72a1.824 1.824 0 0 0-2.597-.208 1.887 1.887 0 0 0-.205 2.634l4.301 5.107c.02.024.043.045.064.068.022.023.043.048.066.07.027.026.056.05.085.074.024.02.047.042.072.062.03.023.062.043.092.065l.075.05c.033.02.068.037.102.056.025.013.05.028.075.04.037.016.075.03.113.045l.072.029c.04.013.082.023.123.034.023.006.046.014.069.019.045.01.092.016.138.023.019.003.037.007.057.009a1.788 1.788 0 0 0 .354.004l.047-.006c.037-.004.072-.008.108-.014l.06-.013.093-.02.067-.021.084-.027c.024-.008.047-.018.07-.028.024-.01.052-.02.077-.032.026-.012.048-.025.072-.038l.071-.037c.024-.013.048-.03.07-.044l.069-.044.067-.051.05-.037 10.016-8.264c.79-.65.909-1.827.267-2.628z"/>
            </g>
        </g>
    </g>
</svg>
