<svg xmlns="http://www.w3.org/2000/svg" width="332" height="336" viewBox="0 0 332 336">
    <g fill="none" fill-rule="evenodd">
        <path fill="#3F3F3F" d="M178.621 216.556c-4.931 2.69-6.754 8.892-4.064 13.823 2.69 4.932 8.89 6.754 13.822 4.064 4.931-2.69 6.754-8.89 4.064-13.822-2.69-4.931-8.89-6.755-13.822-4.065zm11.824 21.675c-7.02 3.83-15.846 1.235-19.676-5.786-3.83-7.02-1.234-15.847 5.785-19.676 7.02-3.83 15.847-1.234 19.677 5.785 3.83 7.02 1.233 15.848-5.786 19.677z"/>
        <path fill="#3F3F3F" d="M263.352 297.668c3.563 6.218 1.157 14.013-5.373 17.406l-37.251 19.357c-6.53 3.393-14.71 1.102-18.273-5.12l-45.808-79.978c-3.562-6.22-1.156-14.014 5.374-17.407l37.25-19.357c6.53-3.393 14.712-1.102 18.275 5.119l45.806 79.98"/>
        <path fill="#302F2F" d="M238.15 269.79c-3.413-6.315-11.254-8.642-17.513-5.196l-22.908 12.61c-6.258 3.446-8.564 11.359-5.15 17.675l3.85 7.121L242 276.911l-3.85-7.121M201.95 315.245c3.407 6.28 11.231 8.598 17.477 5.17l22.858-12.547c6.245-3.427 8.546-11.301 5.14-17.583L243.473 283 198 307.96l3.95 7.285"/>
        <path fill="#A5AAB2" d="M218 257.125L193.1 271 169 225.875 193.9 212l24.1 45.125"/>
        <path fill="#DDD" d="M229 302.62l-.832.564-1.664-3.783c-.5-1.14-1.653-1.559-2.57-.94-.917.622-1.256 2.054-.756 3.19l1.664 3.784-.832.565-1.664-3.784c-.75-1.708-.24-3.853 1.135-4.787 1.375-.93 3.105-.298 3.855 1.407l1.664 3.783"/>
        <path fill="#DDD" d="M233.877 308.527c.266.511.086 1.15-.403 1.43l-6.863 3.915a.987.987 0 0 1-1.368-.421l-3.12-5.98c-.266-.51-.086-1.15.402-1.427l6.863-3.916a.987.987 0 0 1 1.368.421l3.12 5.978"/>
        <path fill="#3F3F3F" d="M231.819 304.2c.392.59.127 1.328-.59 1.65-.718.324-1.618.103-2.008-.484l-1.04-1.565c-.39-.59-.127-1.332.59-1.651.718-.323 1.617-.107 2.009.485l1.039 1.564"/>
        <path fill="#DDD" d="M217.039 279.438l-.89.562-1.778-3.783c-.803-1.708-.259-3.855 1.212-4.786 1.472-.932 3.32-.301 4.124 1.407L221 275.59l-.89.562-1.293-2.752c-.536-1.138-1.768-1.559-2.749-.938-.98.62-1.343 2.051-.808 3.19l1.779 3.785"/>
        <path fill="#DDD" d="M221.876 283.528c.268.511.087 1.15-.4 1.429l-6.866 3.914c-.488.279-1.1.09-1.367-.42l-3.12-5.98c-.266-.51-.086-1.15.402-1.428l6.864-3.914a.986.986 0 0 1 1.367.42l3.12 5.979"/>
        <path fill="#3F3F3F" d="M217.82 283.2c.39.59.126 1.33-.592 1.65-.716.324-1.616.105-2.007-.485l-1.04-1.566c-.391-.59-.127-1.328.59-1.65.719-.322 1.617-.106 2.008.485l1.04 1.567"/>
        <path fill="#D3D3D3" d="M133.445 309.815L121.073 316 114 304.287 131.555 245 151 250.527l-17.555 59.288"/>
        <path fill="#D3D3D3" d="M119 291l-9 3.975 5.56 8.025 3.44-12"/>
        <path fill="#D3D3D3" d="M123 283l-9 3.975 5.56 8.025 3.44-12"/>
        <path fill="#D3D3D3" d="M125 273l-9 3.976 5.56 8.024 3.44-12"/>
        <path fill="#B6B7B7" d="M131.95 250l13.05 4.065-14.828 54.872L122 313l4.142-5.526 13.283-49.155-8.968-2.794L131.95 250"/>
        <path fill="#302F2F" d="M146.479 221.013c-7.298-2.212-12.544-6.414-11.72-9.384.825-2.97 7.41-3.585 14.707-1.373 7.296 2.213 12.543 6.414 11.718 9.384-.824 2.97-7.409 3.585-14.705 1.373zm5.194-17.949c-14.497-4.395-29.91 5.222-34.423 21.479-4.513 16.255 3.58 32.998 18.077 37.393 14.498 4.395 29.91-5.222 34.423-21.478 4.513-16.257-3.58-32.998-18.077-37.394z"/>
        <path fill="#A5AAB2" d="M166.233 223c-9.505 0-18.379-3.96-24.345-10.864-.303-.35-.601-.713-.888-1.078 1.05-.158 4.383.041 5.097.194 5.19 5.232 12.427 8.2 20.136 8.2 7.427 0 14.475-2.787 19.625-7.702.684-.026 2.739.315 4.142 1.035-5.95 6.494-14.606 10.215-23.767 10.215M188.73 204.625c2.978-4.244 4.55-9.201 4.55-14.343 0-14.178-12.013-25.711-26.78-25.711-14.767 0-26.78 11.533-26.78 25.71 0 3.716.806 7.299 2.397 10.65l.181.375c-.371.051-3.277.64-3.688.845a28.07 28.07 0 0 1-2.61-11.87C136 174.137 149.682 161 166.5 161c16.818 0 30.5 13.136 30.5 29.282 0 5.608-1.644 11.022-4.762 15.718-.329-.209-1.967-1.001-3.508-1.375"/>
        <path fill="#E5E3E3" d="M114.68 111.096l2.34 3.252c.439.61.19 1.456-.554 1.885-.744.429-1.707.281-2.146-.33l-2.34-3.251c-.439-.61-.19-1.456.554-1.885.745-.429 1.708-.281 2.147.33zm3.859 2.377l-2.34-3.252c-.933-1.297-2.979-1.61-4.561-.7-1.582.912-2.11 2.709-1.177 4.006l2.34 3.251c.933 1.298 2.979 1.612 4.561.7 1.582-.911 2.11-2.708 1.177-4.005zM106.68 98.096l2.34 3.252c.439.61.19 1.456-.554 1.885-.744.429-1.707.281-2.146-.33l-2.34-3.251c-.439-.61-.19-1.456.554-1.885.745-.429 1.707-.281 2.147.329zm3.859 2.377l-2.34-3.252c-.933-1.297-2.979-1.61-4.561-.7-1.582.912-2.11 2.708-1.177 4.006l2.34 3.251c.933 1.298 2.979 1.612 4.56.7 1.583-.911 2.111-2.708 1.178-4.005z"/>
        <path fill="#D3D3D3" d="M113.908 107.71c.186.37.081.88-.233 1.141-.313.26-.718.17-.903-.2l-2.68-5.36c-.186-.37-.081-.882.232-1.142.314-.26.719-.17.904.2l2.68 5.361"/>
        <path fill="#E5E3E3" d="M129.68 129.096l2.34 3.252c.44.61.19 1.456-.554 1.885-.744.429-1.707.281-2.146-.33l-2.34-3.251c-.439-.61-.19-1.456.554-1.885.745-.429 1.708-.281 2.147.33zm3.859 2.377l-2.34-3.252c-.933-1.297-2.979-1.61-4.561-.7-1.582.912-2.11 2.709-1.177 4.006l2.34 3.251c.933 1.298 2.979 1.612 4.56.7 1.583-.911 2.11-2.708 1.178-4.005zM122.68 120.096l2.34 3.252c.439.61.19 1.456-.554 1.885-.744.429-1.708.281-2.147-.33l-2.339-3.251c-.439-.61-.19-1.456.554-1.885.745-.429 1.708-.281 2.147.33zm3.859 2.377l-2.34-3.252c-.933-1.297-2.979-1.61-4.561-.7-1.582.912-2.11 2.709-1.177 4.006l2.34 3.252c.933 1.297 2.979 1.61 4.56.7 1.583-.912 2.11-2.709 1.178-4.006z"/>
        <path fill="#D3D3D3" d="M125.908 130.71c.185.37.081.88-.233 1.141-.313.26-.718.171-.903-.2l-2.68-5.361c-.186-.37-.081-.881.232-1.141.314-.26.719-.17.904.2l2.68 5.361"/>
        <path fill="#E5E3E3" d="M147.68 155.096l2.34 3.252c.44.61.19 1.456-.554 1.885-.744.429-1.707.281-2.147-.33l-2.339-3.251c-.439-.61-.19-1.456.554-1.885.745-.429 1.707-.281 2.146.33zm3.859 2.377l-2.34-3.252c-.933-1.297-2.979-1.61-4.561-.7-1.582.912-2.11 2.709-1.177 4.006l2.34 3.251c.933 1.298 2.979 1.612 4.56.7 1.583-.911 2.11-2.708 1.178-4.005zM140.68 145.096l2.34 3.252c.439.61.19 1.456-.554 1.885-.744.429-1.707.281-2.146-.33l-2.34-3.251c-.439-.61-.19-1.456.554-1.885.745-.429 1.708-.281 2.147.33zm3.859 2.377l-2.34-3.252c-.933-1.297-2.979-1.61-4.561-.7-1.582.912-2.11 2.709-1.177 4.006l2.34 3.251c.933 1.298 2.979 1.612 4.561.7 1.582-.911 2.11-2.708 1.177-4.005z"/>
        <path fill="#D3D3D3" d="M148.908 166.71c.185.37.081.88-.233 1.141-.313.26-.718.171-.903-.2l-2.68-5.36c-.186-.371-.081-.882.232-1.142.314-.26.718-.17.904.2l2.68 5.361M140.908 155.71c.185.37.081.88-.233 1.141-.313.26-.718.171-.903-.2l-2.68-5.36c-.186-.371-.081-.882.232-1.142.314-.26.719-.17.904.2l2.68 5.361M135.908 143.71c.185.37.081.88-.233 1.141-.313.26-.718.171-.903-.2l-2.68-5.36c-.186-.371-.081-.882.232-1.142.314-.26.719-.17.904.2l2.68 5.361M119.908 119.71c.186.37.081.881-.233 1.141-.313.26-.718.171-.903-.2l-2.68-5.36c-.186-.371-.081-.882.232-1.142.314-.26.719-.17.904.2l2.68 5.361"/>
        <path fill="#5454B5" d="M142 52.5C142 77.629 121.181 98 95.5 98S49 77.629 49 52.5C49 27.37 69.819 7 95.5 7S142 27.37 142 52.5"/>
        <path fill="#EDE726" d="M124.132 16.668C116.162 10.61 106.122 7 95.21 7c-7.896 0-15.336 1.894-21.865 5.235-3.142 3.709-4.926 8.116-5.735 12.51-2.375 12.913-2.66 50.891-2.605 62.573C73.168 93.983 83.705 98 95.21 98c12.76 0 24.33-4.941 32.789-12.956-.039-16.487-.377-50.123-1.731-60.448-.37-2.83-1.047-5.495-2.137-7.928"/>
        <path fill="#9B9B9B" d="M128 88.8C121.489 81.02 110.704 75 96.703 75 82.46 75 71.504 81.227 65 89.2c8.41 6.733 19.324 10.8 31.253 10.8 12.164 0 23.272-4.229 31.747-11.2"/>
        <path fill="#F4AC89" d="M101.999 75.211c-1.258-.326-1.976-.43-3.528-.666l-.81-9.19L88.67 65l-.342 9.437c-1.847.2-2.84.371-4.313.76-.037.488-.001.906.017 1.409.221 6.002 4.42 10.65 9.378 10.383 4.958-.268 8.8-5.35 8.579-11.351-.003-.1.015-.33.009-.427"/>
        <path fill="#F4AC89" d="M71.004 41.87c-.231 14.196 10.961 25.892 25 26.126 14.038.234 25.606-11.085 25.837-25.28l.155-9.586c.232-14.195-10.961-25.893-25-26.126C82.959 6.77 71.39 18.088 71.16 32.284l-.155 9.586"/>
        <path fill="#F4AC89" d="M116 39.902a5.999 5.999 0 1 0 12 .196 6 6 0 0 0-12-.196"/>
        <path fill="#EDE726" d="M110 25s7.213 19.538 8.543 41l3.069-.615s1.261-26.72-.763-40.385H110"/>
        <path fill="#DD4595" d="M150 21.466c.005 1.919-1.388 3.477-3.11 3.48L121.127 25c-1.722.003-3.123-1.549-3.127-3.467-.005-1.918 1.387-3.476 3.11-3.48L146.872 18c1.723-.004 3.124 1.549 3.128 3.466"/>
        <path fill="#EE509C" d="M125 24.875L66 25C65.968 11.231 77.655.047 92.025.016L98.922 0C113.292-.03 124.967 11.106 125 24.875"/>
        <path fill="#F7A388" d="M92 19l-11.999-.062c-.063-3.847 2.258-6.953 5.183-6.938l1.405.008c2.925.014 5.348 3.145 5.411 6.992"/>
        <path fill="#FFF" d="M100 53.21L82 53s2.7 3.478 7.185 3.928c6.092.612 10.535-2.84 10.815-3.719"/>
        <path fill="#000" d="M80.08 41.504c.31 1.069 1.42 1.71 2.48 1.43 1.06-.277 1.669-1.37 1.36-2.438-.31-1.069-1.42-1.71-2.48-1.43-1.06.278-1.669 1.37-1.36 2.438M102.08 41.504c.31 1.069 1.42 1.71 2.48 1.43 1.06-.277 1.668-1.37 1.36-2.438-.31-1.069-1.42-1.71-2.48-1.43-1.06.278-1.669 1.37-1.36 2.438"/>
        <path fill="#E5E3E3" d="M227.012 110.503l-1.076 2.295-1.09 2.288c-.406.86-1.385 1.193-2.171.746-.787-.447-1.09-1.502-.686-2.357l1.082-2.274 1.07-2.281c.402-.856 1.371-1.202 2.163-.768.794.434 1.113 1.49.708 2.351zm-.558 5.489l1.092-2.296 1.08-2.302c.864-1.838.176-4.088-1.51-5-1.69-.917-3.738-.177-4.59 1.635l-1.066 2.274-1.079 2.267c-.86 1.806-.218 4.045 1.452 5.003 1.665.957 3.75.253 4.621-1.581zM233.006 95.428l-2.071 4.628c-.392.868-1.372 1.23-2.182.809-.807-.42-1.146-1.461-.757-2.322l2.057-4.596c.38-.864 1.352-1.239 2.168-.835.817.404 1.17 1.444.785 2.316zm-.418 5.48l2.08-4.646c.822-1.861.065-4.087-1.678-4.927-1.742-.84-3.791-.048-4.598 1.779l-2.05 4.577c-.823 1.822-.113 4.03 1.605 4.932 1.714.9 3.804.135 4.64-1.716z"/>
        <path fill="#D3D3D3" d="M223.363 106.46c-.18.486-.614.679-.969.434-.354-.246-.495-.835-.316-1.318l1.285-3.506 1.269-3.518c.174-.486.603-.69.961-.454.358.237.51.826.334 1.313l-1.273 3.531-1.29 3.519"/>
        <path fill="#E5E3E3" d="M214.028 138.69l-1.199 2.236-.824 1.537-.381.695c-.461.834-1.426 1.086-2.15.562-.725-.524-.945-1.62-.49-2.443l.377-.688.816-1.522 1.187-2.214c.437-.837 1.392-1.11 2.128-.608.737.502.977 1.599.536 2.444zm-.92 5.526l.384-.699.829-1.546 1.206-2.248c.943-1.81.432-4.14-1.139-5.196-1.571-1.055-3.6-.476-4.522 1.292l-1.18 2.202-.812 1.514-.375.683c-.96 1.737-.493 4.066 1.04 5.192 1.534 1.127 3.583.591 4.57-1.194zM221.018 122.588l-1.133 2.269c-.281.568-.568 1.134-.785 1.556l-.36.706c-.434.848-1.403 1.146-2.161.664-.758-.482-1.026-1.558-.597-2.4l.358-.7c.216-.419.5-.98.78-1.544l1.125-2.253c.424-.844 1.383-1.158 2.15-.692.765.466 1.051 1.543.623 2.394zm-.728 5.506l.362-.708c.218-.425.506-.992.789-1.563l1.138-2.277c.907-1.821.298-4.111-1.332-5.092-1.635-.983-3.67-.315-4.562 1.474l-1.12 2.244c-.28.562-.563 1.121-.778 1.539l-.356.697c-.903 1.78-.342 4.061 1.261 5.093 1.61 1.036 3.677.407 4.598-1.407z"/>
        <path fill="#D3D3D3" d="M211.23 133.506c-.187.481-.594.638-.907.35-.314-.289-.417-.91-.23-1.387l.423-1.082c.254-.649.594-1.513.923-2.387l.913-2.396.41-1.094c.18-.484.584-.653.902-.378.32.275.43.893.25 1.38l-.412 1.099-.918 2.408c-.331.878-.673 1.747-.928 2.4l-.425 1.087"/>
        <path fill="#E5E3E3" d="M194 162.183l-.445.655c-.27.39-.615.925-.988 1.433l-1.492 2.03c-.278.384-.65.58-1.03.574-.377-.002-.747-.19-1.026-.56-.278-.37-.414-.848-.412-1.319.005-.464.134-.94.402-1.31l1.433-1.95c.357-.487.692-1.009.954-1.385l.43-.634c.516-.76 1.435-.834 2.038-.176.615.671.672 1.852.136 2.642zm-1.763 5.59s.764-1.038 1.526-2.077c.381-.52.731-1.063 1.007-1.46l.453-.667c.29-.426.5-.905.632-1.404a5.077 5.077 0 0 0 .135-1.546c-.066-1.03-.44-2.008-1.093-2.703-.655-.695-1.465-.985-2.237-.902-.387.04-.761.18-1.11.4-.354.215-.676.52-.946.917 0 0-.17.248-.423.622-.256.368-.585.881-.935 1.358l-1.4 1.904c-.139.19-.26.395-.362.612a4.15 4.15 0 0 0-.269.654 4.894 4.894 0 0 0-.215 1.447c-.002 1 .273 2.036.846 2.842.573.808 1.344 1.226 2.145 1.23.4.002.807-.099 1.195-.3.193-.102.383-.228.563-.38.172-.158.336-.34.488-.547zM202.02 149.865l-1.288 2.188c-.319.55-.66 1.081-.907 1.488l-.415.674c-.5.812-1.447.982-2.112.381-.665-.6-.808-1.735-.319-2.528l.408-.662c.241-.399.576-.92.89-1.46l1.267-2.153c.477-.805 1.419-1.007 2.102-.446.69.566.86 1.697.374 2.518zm-1.243 5.558l.42-.681c.248-.411.594-.95.916-1.504l1.3-2.207c.258-.441.433-.921.522-1.415a4.672 4.672 0 0 0 .01-1.49c-.15-.974-.613-1.87-1.346-2.463-.733-.593-1.6-.776-2.401-.598a2.892 2.892 0 0 0-1.133.533 3.47 3.47 0 0 0-.913 1.03l-1.256 2.132c-.31.537-.642 1.05-.881 1.446l-.403.654c-1.015 1.677-.747 4.046.65 5.348 1.395 1.302 3.452.97 4.515-.785z"/>
        <path fill="#D3D3D3" d="M181.374 167.803a.795.795 0 0 1-1.215-.205c-.271-.44-.187-1.047.188-1.354l.853-.7c.127-.107.27-.214.41-.343l.44-.415.955-.901.486-.458.449-.474.796-.84.563-.594c.137-.141.21-.228.211-.228a.807.807 0 0 1 1.224-.02c.348.37.356.986.017 1.377 0 0-.075.09-.217.236a1143.496 1143.496 0 0 0-1.403 1.48l-.464.49-.506.478-.996.939-.458.432c-.148.135-.3.249-.433.362l-.9.738M192.77 159.706c-.37.355-1.008.394-1.425.086-.417-.308-.462-.84-.101-1.187 0 0 .083-.077.22-.22l.572-.589c.472-.488 1.11-1.133 1.732-1.789l1.677-1.83c.462-.495.755-.837.755-.837.326-.374.95-.451 1.395-.173.445.28.537.813.206 1.193 0 0-.295.345-.764.848l-1.701 1.856c-.632.666-1.281 1.322-1.76 1.818l-.583.599a5.752 5.752 0 0 1-.224.225M201.154 151.542c-.196.475-.588.6-.876.28-.288-.319-.365-.96-.17-1.43l.12-.292c.076-.187.188-.45.316-.775l.942-2.37c.347-.858.678-1.733.93-2.385l.418-1.088c.185-.48.575-.626.87-.325.296.301.385.938.198 1.422l-.421 1.096c-.254.656-.587 1.537-.936 2.402l-.95 2.388c-.129.327-.242.594-.319.782l-.122.295M219.31 124.48c-.185.482-.608.661-.946.4-.338-.262-.463-.863-.28-1.344l1.311-3.493 1.292-3.508c.176-.486.595-.675.937-.424.341.252.475.852.298 1.34l-1.296 3.522-1.316 3.507"/>
        <path fill="#373737" d="M270 84.8c-6.511-7.78-17.296-13.8-31.297-13.8-14.242 0-25.198 6.227-31.703 14.2 8.41 6.733 19.324 10.8 31.253 10.8 12.164 0 23.273-4.229 31.747-11.2"/>
        <path fill="#F4E451" d="M235.935 67.695c13.523 0 23.94 6.063 30.228 13.9C275.87 73.269 282 61.055 282 47.44 282 22.344 261.181 2 235.5 2S189 22.344 189 47.439c0 13.837 6.33 26.227 16.314 34.561 6.283-8.032 16.865-14.305 30.62-14.305"/>
        <path fill="#9B6D5C" d="M243.999 71.211c-1.259-.325-1.976-.429-3.527-.666l-.812-9.19L230.67 61l-.342 9.437c-1.846.2-2.84.372-4.313.76-.037.488-.001.906.017 1.409.22 6.002 4.42 10.65 9.378 10.383 4.958-.267 8.8-5.35 8.579-11.351-.004-.1.015-.33.009-.427M207 38.027a6 6 0 1 0 12-.055 6 6 0 0 0-12 .055"/>
        <path fill="#9B6D5C" d="M210 38.137c-.009 14.826 11.47 26.854 25.483 26.863 14.012.01 25.507-12.002 25.517-26.828l-.393-7.464C260.617 15.882 249.534 4.01 235.523 4c-14.013-.01-24.61 12.149-24.62 26.975L210 38.137"/>
        <path fill="#9B6D5C" d="M255 40.027a6 6 0 1 0 12-.055 6 6 0 0 0-12 .055"/>
        <path fill="#77564D" d="M235.482 63c14.012.01 25.508-11.894 25.517-26.588l.001-1.217c-.006-.176-.01-.352-.006-.525l-2.785.185s-.614 13.334-9.8 13.124c-3.243-.074-7.508-4.43-13.13-4.512-5.886-.086-9.642 4.26-13.063 4.255-9.189-.016-9.401-13.507-9.401-13.507L210.042 34a7.149 7.149 0 0 1-.04.674L210 36.378C209.991 51.07 221.47 62.99 235.482 63"/>
        <path fill="#4F3934" d="M260.848 25.287c-.51-8.228-7.037-22.46-24.894-23.287-17.79.63-25.158 14.39-25.751 22.613-.19 2.648-.203 10.52-.203 10.52l2.775.218c.001 0-1.049-24.24 13.16-20.05 3.157.93 6.979 1.876 9.865 1.928 3.107-.008 6.254-.525 9.42-1.422C259.47 11.771 258.206 36 258.206 36l2.794-.187s.012-7.875-.152-10.526"/>
        <path fill="#FFF" d="M244 49.21L226 49s2.7 3.478 7.185 3.928c6.092.612 10.535-2.84 10.815-3.719"/>
        <path fill="#000" d="M220.08 36.504c.31 1.069 1.42 1.71 2.48 1.43 1.06-.277 1.669-1.37 1.36-2.438-.31-1.068-1.42-1.71-2.48-1.43-1.06.278-1.669 1.37-1.36 2.438M246.08 36.504c.31 1.069 1.42 1.71 2.48 1.43 1.06-.277 1.668-1.37 1.36-2.438-.31-1.068-1.42-1.71-2.48-1.43-1.06.278-1.669 1.37-1.36 2.438"/>
        <path fill="#E5E3E3" d="M170.23 153.7l-.33 4.893c-.063.919-.815 1.6-1.678 1.52-.863-.081-1.515-.895-1.452-1.813l.33-4.893c.062-.918.815-1.6 1.678-1.52.863.082 1.514.895 1.452 1.813zm1.43 5.058l.331-4.893c.132-1.952-1.253-3.68-3.087-3.851-1.834-.172-3.433 1.276-3.565 3.228l-.33 4.893c-.132 1.952 1.252 3.68 3.086 3.851 1.835.172 3.434-1.276 3.566-3.228zM172.23 141.7l-.33 4.893c-.062.919-.814 1.6-1.678 1.52-.863-.081-1.514-.894-1.452-1.813l.33-4.893c.062-.918.815-1.6 1.678-1.52.863.082 1.515.895 1.452 1.813zm1.43 5.058l.331-4.893c.132-1.952-1.253-3.68-3.087-3.851-1.834-.172-3.433 1.276-3.565 3.228l-.33 4.893c-.132 1.952 1.253 3.68 3.086 3.851 1.835.172 3.434-1.276 3.566-3.228z"/>
        <path fill="#D3D3D3" d="M170.104 167.176c-.061.497-.805.864-1.662.82-.855-.043-1.5-.481-1.438-.978l.892-7.194c.061-.497.806-.864 1.66-.82.858.043 1.501.481 1.44.978l-.892 7.194M170.104 153.177c-.061.496-.805.863-1.662.82-.855-.044-1.5-.482-1.438-.979l.891-7.194c.062-.497.806-.864 1.662-.82.857.043 1.5.481 1.439.978l-.892 7.195"/>
        <path fill="#373737" d="M200 129.8c-6.511-7.78-17.296-13.8-31.297-13.8-14.242 0-25.198 6.227-31.703 14.2 8.41 6.733 19.324 10.8 31.253 10.8 12.164 0 23.273-4.228 31.747-11.2"/>
        <path fill="#B8E986" d="M168.935 115.695c13.523 0 23.94 6.063 30.228 13.9C208.87 121.269 215 109.055 215 95.44 215 70.344 194.181 50 168.5 50S122 70.344 122 95.439c0 13.836 6.33 26.227 16.314 34.561 6.283-8.032 16.865-14.305 30.621-14.305"/>
        <path fill="#FCCFB2" d="M176.999 119.211c-1.259-.325-1.976-.43-3.527-.666l-.812-9.19-8.989-.355-.342 9.437c-1.846.2-2.84.372-4.313.76-.037.488-.001.906.017 1.409.22 6.002 4.42 10.65 9.378 10.383 4.958-.267 8.8-5.35 8.579-11.351-.004-.1.015-.329.009-.427"/>
        <path fill="#EFC3AB" d="M137.006 81.255a6 6 0 1 0 11.989-.51 6 6 0 0 0-11.99.51"/>
        <path fill="#FCCFB2" d="M143.425 85.402c.595 14.176 12.393 25.178 26.353 24.574 13.959-.604 24.793-12.585 24.199-26.762l-.402-9.572c-.24-5.715.053-13.794-3.236-17.925-4.87-6.115-14.785-7.008-23.116-6.648-13.96.603-24.794 12.585-24.2 26.76l.402 9.573"/>
        <path fill="#FCCFB2" d="M189.006 81.254a6 6 0 1 0 5.738-6.249 6 6 0 0 0-5.738 6.25"/>
        <path fill="#BA6338" d="M195.176 78s.835-.857 1.478-1.434c0 0 3.557-7.68 1.911-13.125-.598-2.415-2.343-5.457-4.614-8.441L187 60.634c2.843 3.616 6.762 8.585 8.176 17.366M150 56.809L145.69 55s-4.152 6.522-2.14 17.806l.51.194s.25-11.292 5.94-16.191"/>
        <path fill="#A55532" d="M188 54.305l-6.396 5.976s-24.854 2.649-36.249-2.22c-5.507-2.353-6.981-3.652-8.355-16.933 7.614 12.177 51.149-19.46 51 13.177"/>
        <path fill="#FFF" d="M175 93.21L157 93s2.7 3.478 7.185 3.928c6.092.612 10.535-2.84 10.815-3.719"/>
        <path fill="#000" d="M153.08 82.504c.31 1.069 1.42 1.71 2.48 1.43 1.06-.277 1.669-1.37 1.36-2.438-.31-1.068-1.42-1.71-2.48-1.43-1.06.278-1.669 1.37-1.36 2.438M177.08 82.504c.31 1.069 1.42 1.71 2.48 1.43 1.06-.277 1.668-1.37 1.36-2.438-.31-1.068-1.42-1.71-2.48-1.43-1.06.278-1.669 1.37-1.36 2.438"/>
        <path fill="#000" d="M145.39 79.718c-.02-1.167.615-2.152 1.892-2.154l15.154.013c.745-.002 1.516.315 2.01.826.253.26.538.682.466 1.222-.353 2.642-1.662 7.897-3.99 7.901l-11.062-.021c-1.793-.052-2.34-1.604-2.823-2.616-.58-1.219-1.485-4.583-1.647-5.171zm27.065-1.377c.445-.512 1.182-.832 1.927-.834l15.154.014c1.277-.003 1.738.934 1.837 2.101-.103.589-.447 4.336-.905 5.557-.378 1.014-.797 2.44-2.4 2.336l-11.062-.022c-2.327.005-4.27-5.289-4.891-7.928-.126-.54.115-.963.34-1.224zm-29.45.38l.003.074.02.072c.05.182 1.275 5.35 1.957 6.782.552 1.162 2.175 3.356 4.365 3.351l11.645-.024c4.05-.009 5.34-8.239 5.578-9.949.337-.642 1.045-1.082 1.889-1.083.882-.002 1.666.476 2.052 1.166.462 1.89 2.583 9.84 6.566 9.832l11.646-.024c2.188-.004 3.59-2.205 4.023-3.368.536-1.433 1.26-6.606 1.25-6.789l-.003-.072-.004-.074c-.1-1.998-1.916-3.62-4.085-3.615l-15.613.032h-.125l-11.678.025-15.736.033c-2.17.004-3.853 1.634-3.75 3.632z"/>
        <path fill="#E5E3E3" d="M100.538 151.99l4.554 2.143c.856.402 1.186 1.375.737 2.169-.448.793-1.51 1.111-2.366.708l-4.557-2.144c-.855-.403-1.184-1.376-.735-2.17.45-.792 1.512-1.11 2.367-.706zm5.47.525l-4.552-2.142c-1.818-.858-4.074-.184-5.029 1.501-.955 1.686-.254 3.753 1.56 4.61l4.56 2.145c1.82.856 4.075.18 5.028-1.506.953-1.687.25-3.754-1.566-4.608zM84.338 146.995l.774.295.375.143.398.176.866.385 1.62.72.714.338c.858.407 1.197 1.394.755 2.202-.442.806-1.492 1.136-2.34.734l-.707-.335-1.545-.687a1592.372 1592.372 0 0 0-1.204-.536l-.34-.128-.701-.266a1.635 1.635 0 0 1-.904-.86 1.543 1.543 0 0 1-.048-1.244c.167-.426.502-.752.914-.933a1.866 1.866 0 0 1 1.373-.004zm5.638.406l-.718-.34-1.662-.74c-.303-.133-.605-.268-.888-.393l-.41-.182-.394-.15-.816-.312a4.64 4.64 0 0 0-.788-.221 2.963 2.963 0 0 0-.772-.057c-.498.026-.98.14-1.417.333-.876.385-1.573 1.083-1.905 1.994a3.399 3.399 0 0 0 .938 3.709c.174.145.342.283.52.403.181.12.377.221.588.301l.66.25.32.12.37.165.801.357 1.502.668.703.333c1.792.85 4.023.15 4.973-1.56.95-1.71.23-3.808-1.605-4.678z"/>
        <path fill="#D3D3D3" d="M99.47 152.653c.485.178.67.607.416.958-.255.35-.854.49-1.338.312l-7.013-2.572c-.484-.176-.675-.604-.426-.957.25-.353.847-.495 1.334-.318l7.027 2.577"/>
        <path fill="#E5E3E3" d="M126.524 166.99l4.563 2.124c.857.4 1.194 1.373.75 2.171-.442.798-1.5 1.123-2.357.724l-4.566-2.125c-.857-.4-1.193-1.373-.749-2.17.444-.798 1.502-1.123 2.359-.724zm5.467.496l-4.562-2.124c-1.82-.847-4.068-.157-5.012 1.538-.944 1.694-.23 3.763 1.592 4.611l4.566 2.126c1.823.848 4.07.158 5.01-1.538.941-1.697.226-3.766-1.594-4.613zM114.53 160.989l4.56 2.134c.856.4 1.19 1.374.744 2.17-.445.796-1.504 1.117-2.36.717l-4.563-2.136c-.856-.4-1.189-1.374-.742-2.169.447-.795 1.506-1.116 2.362-.716zm5.47.51l-4.558-2.133c-1.818-.85-4.07-.168-5.02 1.522-.95 1.69-.242 3.757 1.579 4.609l4.563 2.136c1.821.852 4.071.17 5.017-1.522.946-1.692.236-3.76-1.582-4.612z"/>
        <path fill="#D3D3D3" d="M143.37 173.83c.571.152.795.523.5.828-.294.305-.994.43-1.565.277l-9.676-2.766c-.57-.152-.794-.523-.499-.828.295-.305.997-.428 1.567-.276l9.674 2.765M126.466 163.643c.485.177.674.607.423.961-.251.354-.848.497-1.333.32l-7.023-2.567c-.485-.178-.673-.61-.421-.962.252-.354.849-.496 1.333-.318l7.02 2.566M110.468 157.652c.485.177.673.605.419.956-.253.351-.852.493-1.337.316l-7.02-2.576c-.484-.178-.67-.607-.416-.958.254-.35.853-.49 1.337-.313l7.017 2.575"/>
        <path fill="#D2A9F6" d="M77 152.8c-6.51-7.78-17.295-13.8-31.297-13.8-14.242 0-25.199 6.227-31.703 14.2 8.41 6.733 19.324 10.8 31.253 10.8 12.164 0 23.273-4.229 31.747-11.2"/>
        <path fill="#FF584D" d="M46.935 138.696c13.523 0 23.94 6.063 30.228 13.9C86.87 144.268 93 132.054 93 118.439 93 93.344 72.181 73 46.5 73S0 93.344 0 118.439C0 132.276 6.33 144.666 16.314 153c6.283-8.032 16.865-14.304 30.621-14.304"/>
        <path fill="#FCCFB2" d="M56.999 137.211c-1.259-.325-1.976-.429-3.527-.666l-.812-9.19-8.99-.355-.341 9.437c-1.847.2-2.84.372-4.313.761-.037.487-.001.905.017 1.408.22 6.002 4.42 10.65 9.378 10.383 4.958-.267 8.8-5.35 8.579-11.351-.004-.1.015-.329.009-.427M12 104.028a6 6 0 1 0 12-.055 6 6 0 0 0-12 .055"/>
        <path fill="#FCCFB2" d="M22 107.137C21.991 121.963 33.47 133.99 47.483 134c14.012.01 25.507-12.002 25.517-26.828l-.394-7.464C72.616 84.882 61.534 73.01 47.523 73c-14.012-.01-24.61 12.149-24.62 26.975L22 107.137"/>
        <path fill="#FCCFB2" d="M65 108.028a6 6 0 1 0 12.001-.057 6 6 0 0 0-12 .057"/>
        <path fill="#D5B09E" d="M24 115c-1.305-2.15-2.003-4.418-2-6.759-.003 2.341.695 4.609 2 6.759m-2-6.759l.004-1.605c.05-.217.082-.43.085-.636l.551.019-.64 2.222"/>
        <path fill="#D5B09E" d="M48.13 135h-.017c-11.931-.008-22.07-8.244-25.152-19.465A27.004 27.004 0 0 1 22 108.36l.307-2.359 2.578.195s.217 13.5 9.633 13.516h.006c1.735 0 3.555-1.065 5.681-2.13 2.126-1.064 4.56-2.129 7.522-2.129.059 0 .118 0 .177.002 5.762.082 10.132 4.44 13.455 4.515l.219.002c3.911 0 6.273-2.373 7.695-5.102A6.887 6.887 0 0 0 73 116.55C69.597 127.256 59.703 135 48.13 135"/>
        <path fill="#D5B09E" d="M73.988 118c-1.14-.212-2.173-.946-2.988-2.037 1.543-4.475 1.707-9.74 1.707-9.74l2.288-.223c-.003.21 0 .422.005.636v1.477A48.238 48.238 0 0 1 73.988 118"/>
        <path fill="#706053" d="M72.848 96.287C72.339 88.06 65.81 73.827 47.954 73c-17.79.63-25.158 14.39-25.751 22.613-.191 2.648-.203 10.52-.203 10.52l2.775.218c.001 0-1.049-24.24 13.16-20.05 3.157.93 6.979 1.876 9.865 1.928 3.107-.007 6.254-.525 9.42-1.422C71.47 82.771 70.206 107 70.206 107l2.794-.187s.012-7.875-.152-10.526"/>
        <path fill="#373737" d="M65.294 82.047l-3.901 3.96s-24.926 4.165-36.837.453C18.799 84.666 17.432 82.568 14 71.322c13.448 4.714 11.68 3.945 11.68 3.945s-4.108-4.997-9.966-7.516c6.59-3.035 18.41-2.395 25.188 1.702-.41-1.449-2.11-3.383-10.796-6.387 7.68-.342 27.15.282 29.781 10.807 0 0 2.656-1.053.214-4.724 4.213 1.429 9.744 5.48 5.193 12.898"/>
        <path fill="#FFF" d="M57 118.21L39 118s2.7 3.478 7.185 3.928c6.092.612 10.535-2.84 10.815-3.719"/>
        <path fill="#000" d="M34.08 108.504c.31 1.069 1.42 1.71 2.48 1.43 1.06-.277 1.669-1.37 1.36-2.438-.31-1.068-1.42-1.71-2.48-1.431-1.06.279-1.669 1.37-1.36 2.439M55.08 108.504c.31 1.069 1.42 1.71 2.48 1.43 1.06-.277 1.668-1.37 1.36-2.438-.31-1.068-1.42-1.71-2.48-1.431-1.06.279-1.669 1.37-1.36 2.439"/>
        <path fill="#E5E3E3" d="M240.789 165.167l-4.831 1.24c-.907.234-1.812-.154-2.018-.864-.206-.71.364-1.477 1.271-1.71l4.831-1.241c.907-.233 1.812.155 2.019.865.205.71-.365 1.477-1.272 1.71zm-4.41 2.69l4.83-1.242c1.927-.495 3.14-2.125 2.702-3.633-.438-1.509-2.362-2.333-4.289-1.838l-4.83 1.24c-1.928.496-3.14 2.125-2.703 3.634.438 1.509 2.362 2.333 4.29 1.838zM258.79 163.167l-4.832 1.24c-.907.234-1.812-.154-2.018-.864-.206-.71.364-1.477 1.271-1.71l4.832-1.24c.906-.234 1.811.155 2.017.864.206.71-.364 1.477-1.27 1.71zm-4.412 2.69l4.831-1.242c1.927-.495 3.14-2.125 2.702-3.633-.438-1.509-2.362-2.333-4.289-1.838l-4.83 1.24c-1.928.496-3.14 2.126-2.703 3.634.438 1.509 2.362 2.333 4.29 1.838z"/>
        <path fill="#D3D3D3" d="M240.495 164.955c-.659.154-1.314-.1-1.464-.568-.15-.467.263-.97.922-1.123l9.551-2.22c.66-.153 1.316.102 1.465.569.15.467-.263.97-.923 1.123l-9.55 2.22"/>
        <path fill="#E5E3E3" d="M203.79 179.167l-4.832 1.24c-.907.234-1.813-.154-2.018-.864-.206-.71.364-1.477 1.271-1.71l4.831-1.24c.907-.234 1.812.154 2.018.864.206.71-.364 1.477-1.27 1.71zm-4.412 2.69l4.831-1.242c1.927-.494 3.14-2.125 2.702-3.633-.438-1.509-2.362-2.333-4.289-1.838l-4.83 1.24c-1.928.496-3.14 2.126-2.703 3.634.438 1.509 2.362 2.333 4.29 1.838zM222.79 173.167l-4.832 1.24c-.907.234-1.813-.154-2.018-.864-.206-.71.364-1.477 1.271-1.71l4.831-1.24c.907-.234 1.812.154 2.018.864.206.71-.364 1.477-1.27 1.71zm-4.412 2.69l4.831-1.242c1.928-.495 3.14-2.124 2.702-3.633-.438-1.509-2.361-2.333-4.289-1.838l-4.83 1.24c-1.928.496-3.14 2.126-2.703 3.634.438 1.509 2.362 2.333 4.29 1.838z"/>
        <path fill="#D3D3D3" d="M190.495 180.955c-.66.154-1.315-.1-1.464-.568-.15-.467.263-.97.922-1.123l9.551-2.22c.66-.153 1.316.102 1.465.568.15.468-.263.97-.923 1.124l-9.55 2.22M208.495 178.955c-.659.154-1.315-.1-1.464-.568-.15-.466.263-.97.922-1.122l9.551-2.22c.66-.154 1.316.1 1.465.567.15.468-.263.97-.923 1.124l-9.55 2.22M223.495 172.955c-.659.154-1.315-.1-1.464-.568-.15-.467.263-.97.922-1.123l9.551-2.22c.66-.153 1.316.102 1.465.568.15.468-.263.97-.923 1.124l-9.55 2.22"/>
        <path fill="#5454B5" d="M239 125.5c0 25.129 20.819 45.5 46.5 45.5 25.683 0 46.5-20.371 46.5-45.5S311.183 80 285.5 80c-25.681 0-46.5 20.371-46.5 45.5"/>
        <path fill="#E6A36F" d="M255 158.8c6.51-7.78 17.295-13.8 31.296-13.8 14.242 0 25.198 6.227 31.704 14.2-8.41 6.733-19.323 10.8-31.254 10.8-12.164 0-23.272-4.229-31.746-11.2"/>
        <path fill="#373737" d="M252.687 114.454c1.677-10.763 7.212-39.482 33.758-41.359v-.064c0-.005.164-.013.316-.017.6-.017 1.12-.016 1.7-.009a44.449 44.449 0 0 1 1.817.009c.149.004.439.012.439.017v.061c26.546 1.841 31.947 30.59 33.629 41.362 1.543 11.95-.129 26.979-.129 26.979-46.403 5.776-71.533 0-71.533 0s-1.541-15.03.003-26.98"/>
        <path fill="#FCCFB2" d="M277.001 148.21c1.258-.325 1.976-.43 3.527-.666l.812-9.19 8.988-.354.342 9.437c1.846.2 2.841.37 4.314.76.037.487 0 .906-.018 1.409-.22 6.002-4.42 10.65-9.377 10.383-4.959-.268-8.8-5.35-8.58-11.351.005-.1-.014-.33-.008-.428"/>
        <path fill="#FCCFB2" d="M259.004 111.87c-.231 14.196 10.962 25.893 25 26.126 14.037.234 25.607-11.085 25.836-25.28l.157-9.586c.23-14.195-10.963-25.892-25-26.126-14.04-.233-25.607 11.085-25.838 25.28l-.155 9.586"/>
        <path fill="#FCCFB2" d="M303 111.902a6 6 0 1 0 12 .195 6 6 0 0 0-12-.195"/>
        <path fill="#373737" d="M307.586 138.43l7.05 1.57s1.086-26.446-.495-40.845c0 0-3.323-14.584-7.232-17.612C301.858 77.633 281 77 281 77s24.802 8.815 26.586 61.43"/>
        <path fill="#373737" d="M287 80.304L255.417 129s-2.804-22.941 6.127-34.688C274.934 76.699 287 80.304 287 80.304"/>
        <path fill="#EE509C" d="M317.762 100c1.735-8.066-6.58-30.917-6.844-39.429-.192-6.162-5.53-8.39-9.38-9.17-4.891-.99-11.357-.326-13.695 4.04-2.89 5.4-9.855 10.352-11.878 11.831-6.176 4.516-15.25 14.318-16.965 22.29L317.762 100"/>
        <path fill="#D84C96" d="M255.008 93.637c-.077.523.409.955.948 1.035l63.842 10.314c.538.08 1.126-.192 1.202-.714l-.468-11.89c.076-.522-.41-.954-.948-1.034l-58.886-9.334c-.541-.08-1.129.192-1.205.714l-4.485 10.91"/>
        <path fill="#000" d="M272.92 111.504c-.31 1.069-1.42 1.71-2.48 1.43-1.06-.277-1.668-1.37-1.36-2.438.31-1.069 1.42-1.71 2.48-1.43 1.06.278 1.669 1.37 1.36 2.438"/>
        <path fill="#FFF" d="M277 124.21l18-.21s-2.7 3.478-7.184 3.928c-6.093.611-10.536-2.84-10.816-3.718"/>
        <path fill="#000" d="M298.919 111.504c-.308 1.069-1.419 1.71-2.478 1.43-1.062-.277-1.67-1.37-1.36-2.438.308-1.069 1.419-1.71 2.478-1.43 1.062.278 1.67 1.37 1.36 2.438"/>
    </g>
</svg>
