<svg xmlns="http://www.w3.org/2000/svg" xmlns:xlink="http://www.w3.org/1999/xlink" width="150" height="120" viewBox="0 0 150 120">
    <defs>
        <path id="a" d="M0 0h150v120H0z"/>
    </defs>
    <g fill="none" fill-rule="evenodd">
        <mask id="b" fill="#fff">
            <use xlink:href="#a"/>
        </mask>
        <use fill="#FFF" xlink:href="#a"/>
        <g mask="url(#b)">
            <g transform="translate(26 8)">
                <g transform="translate(6 34)">
                    <path fill="#BD252A" fill-rule="nonzero" d="M82.692 43H3.308C1.48 43 0 44.432 0 46.2v1.6C0 49.568 1.48 51 3.308 51h79.384C84.52 51 86 49.568 86 47.8v-1.6c0-1.768-1.48-3.2-3.308-3.2z"/>
                    <path fill="#8E1C20" fill-rule="nonzero" d="M4.8 47.8v-1.6A3.2 3.2 0 0 1 8 43H3.2A3.2 3.2 0 0 0 0 46.2v1.6A3.2 3.2 0 0 0 3.2 51H8a3.2 3.2 0 0 1-3.2-3.2z"/>
                    <path fill="#D14343" fill-rule="nonzero" d="M78.1 22.79l-4.975-2.944-4.457-13.06C67.286 2.734 63.405 0 59.033 0H27.967c-4.372 0-8.254 2.734-9.637 6.786l-4.455 13.06-5.421 2.812A8.277 8.277 0 0 0 4 30.006V43h79V30.353a8.272 8.272 0 0 0-4.9-7.563z"/>
                    <path fill="#FFAB50" fill-rule="nonzero" d="M71.479 16.538h8.229v3.308h-8.229zM7.292 16.538h8.229v3.308H7.292z"/>
                    <path fill="#C6D1D6" fill-rule="nonzero" d="M13 20.571L27.172 24H60.83L75 20.571 70.336 7.034C68.89 2.834 64.83 0 60.254 0H27.746c-4.575 0-8.637 2.834-10.084 7.034L13 20.57z"/>
                    <path fill="#BE262A" fill-rule="nonzero" d="M13.13 23.794l3.7-1.961L13.6 21l-5.27 2.794C5.67 25.204 4 28.02 4 31.093V44h4.8V31.092c0-3.072 1.67-5.888 4.33-7.297z"/>
                    <path fill="#32373F" fill-rule="nonzero" d="M16.75 60h-6.5C8.454 60 7 58.568 7 56.8V52h13v4.8c0 1.768-1.454 3.2-3.25 3.2zM75.75 60h-6.5C67.454 60 66 58.568 66 56.8V52h13v4.8c0 1.768-1.454 3.2-3.25 3.2z"/>
                    <path fill="#FDD38D" fill-rule="nonzero" d="M72.05 36H57.2v-3c0-1.657 1.477-3 3.3-3H77v1.5c0 2.486-2.216 4.5-4.95 4.5zM15.95 36H30.8v-3c0-1.657-1.477-3-3.3-3H11v1.5c0 2.486 2.216 4.5 4.95 4.5z"/>
                    <ellipse cx="18.143" cy="47" fill="#FCB641" fill-rule="nonzero" rx="4.143" ry="4"/>
                    <ellipse cx="67.857" cy="47" fill="#FCB641" fill-rule="nonzero" rx="4.143" ry="4"/>
                    <path fill="#FDC567" fill-rule="nonzero" d="M32 43h23v11H32z"/>
                    <path fill="#BE262A" fill-rule="nonzero" d="M35 35.667h17V39H35zM35 29h17v3.333H35z"/>
                    <path fill="#A0B2BA" fill-rule="nonzero" d="M38 5h10v3H38z"/>
                    <path fill="#A0B2BA" fill-rule="nonzero" d="M22.82 7.74C24.265 3.717 28.322 1 32.893 1h-5.161c-4.57 0-8.628 2.716-10.073 6.74L13 20.715 27.157 24h5.162L18.16 20.714l4.66-12.973z" opacity=".5"/>
                    <path fill="#32373F" fill-rule="nonzero" d="M16.75 60h-6.5C8.454 60 7 58.568 7 56.8V52h13v4.8c0 1.768-1.454 3.2-3.25 3.2z"/>
                </g>
                <g fill="#A3E1EF" fill-rule="nonzero">
                    <path d="M47.364 1.639h3.273V18.03h-3.273zM47.364 19.248h3.273v3.278h-3.273zM47.364 25.804h3.273v3.278h-3.273zM29.364 1.639h3.273V18.03h-3.273zM29.364 19.248h3.273v3.278h-3.273zM29.364 25.804h3.273v3.278h-3.273zM13 1.639h3.273V18.03H13zM13 19.248h3.273v3.278H13zM37.545 0h3.273v9.835h-3.273zM37.545 11.052h3.273v3.278h-3.273zM37.545 17.609h3.273v3.278h-3.273zM37.545 24.165h3.273v3.278h-3.273zM21.182 0h3.273v9.835h-3.273zM21.182 11.052h3.273v3.278h-3.273zM21.182 17.609h3.273v3.278h-3.273zM21.182 24.165h3.273v3.278h-3.273zM21.182 30.722h3.273V34h-3.273zM57.182 0h3.273v9.835h-3.273zM57.182 11.052h3.273v3.278h-3.273zM57.182 17.609h3.273v3.278h-3.273zM57.182 24.165h3.273v3.278h-3.273zM65.364 1.639h3.273V18.03h-3.273zM65.364 19.248h3.273v3.278h-3.273zM65.364 25.804h3.273v3.278h-3.273zM73.545 0h3.273v9.835h-3.273zM73.545 11.052h3.273v3.278h-3.273zM73.545 17.609h3.273v3.278h-3.273zM73.545 24.165h3.273v3.278h-3.273zM81.727 1.639H85V18.03h-3.273zM81.727 19.248H85v3.278h-3.273z"/>
                </g>
                <path fill="#A3E1EF" fill-rule="nonzero" d="M85.348 6H12.652C11.74 6 11 5.328 11 4.5V0h76v4.5c0 .828-.74 1.5-1.652 1.5z"/>
                <path fill="#8CAFB6" fill-rule="nonzero" d="M15.5 4.5V0H11v4.5A1.5 1.5 0 0 0 12.5 6H17a1.5 1.5 0 0 1-1.5-1.5z" opacity=".5"/>
                <path fill="#8BC2CF" fill-rule="nonzero" d="M89.1 40.786h-1.65v-1.643h-3.3v1.643H82.5v3.285h1.65v1.643h3.3v-1.643h1.65z"/>
                <ellipse cx="4.125" cy="44.893" fill="#8BC2CF" fill-rule="nonzero" rx="4.125" ry="4.107"/>
                <ellipse cx="94.875" cy="30.107" fill="#8BC2CF" fill-rule="nonzero" rx="4.125" ry="4.107"/>
            </g>
        </g>
    </g>
</svg>
