<svg xmlns="http://www.w3.org/2000/svg" xmlns:xlink="http://www.w3.org/1999/xlink" width="150" height="120" viewBox="0 0 150 120">
    <defs>
        <path id="a" d="M0 0h150v120H0z"/>
    </defs>
    <g fill="none" fill-rule="evenodd">
        <mask id="b" fill="#fff">
            <use xlink:href="#a"/>
        </mask>
        <use fill="#FFF" xlink:href="#a"/>
        <g mask="url(#b)">
            <g fill-rule="nonzero" transform="translate(26 16)">
                <path fill="#A3E1EF" d="M44 53H17V42.965C17 35.252 23.155 29 30.746 29c5.154.09 9.785 3.22 11.855 8.016A15.625 15.625 0 0 1 44 43.499V53z"/>
                <g fill="#2D2B29">
                    <path d="M30.667 46.084c-.92 0-1.667-.751-1.667-1.679V37.69c0-.927.746-1.679 1.667-1.679.92 0 1.666.752 1.666 1.68v6.715c0 .928-.746 1.68-1.666 1.68z"/>
                    <path d="M39 52.8h-3.333v-8.04c0-.962-1.334-2.034-3.247-2.034h-1.753v-3.358h1.753c3.69 0 6.58 2.37 6.58 5.392v8.04z"/>
                </g>
                <path fill="#D14343" d="M47.308 76H5V52.375L93 49v27z"/>
                <path fill="#F46464" d="M89 76h3V49l-3 .13z"/>
                <path fill="#AF3A3A" d="M5 73h88v3H5z"/>
                <path fill="#A9BFD1" d="M99.317 86H1.683C.753 86 0 85.328 0 84.5S.754 83 1.683 83h97.634c.93 0 1.683.672 1.683 1.5s-.754 1.5-1.683 1.5z"/>
                <path fill="#EC7422" d="M69.5 56C79.717 56 88 47.628 88 37.3v-.799C88 23.371 80.904 11.288 69.5 5l-.484 1.47a33.087 33.087 0 0 1-9.805 14.702C54.058 24.892 51 30.9 51 37.3 51 47.628 59.283 56 69.5 56z"/>
                <path fill="#FFBF41" d="M70.667 38.875l.783-1.587C73.969 32.19 72.982 26.031 69 22l-.262.78a17.489 17.489 0 0 1-5.3 7.78A10.464 10.464 0 0 0 59 39.1c.062 5.53 4.539 9.961 10 9.9 5.461.061 9.938-4.37 10-9.9v-.422c0 .198-8.333.198-8.333.198z"/>
                <path fill="#FFAB50" d="M24.058 14.042l-.725-3.667-.518.525a17.095 17.095 0 0 0-4.073 6.674A13.311 13.311 0 0 0 15 7l-.262.78a17.489 17.489 0 0 1-5.3 7.78A10.464 10.464 0 0 0 5 24.1c.062 5.53 4.539 9.961 10 9.9 5.461.061 9.938-4.37 10-9.9v-.422c0-3.235-.315-6.463-.942-9.635z"/>
                <g fill="#C1D6E8">
                    <path d="M8.7 70.01H3.186a5.244 5.244 0 0 0-.502 5.91l.502.878H8.7V70.01zM94.463 70.01H89.09v6.788h5.372l.566-.877a4.8 4.8 0 0 0-.566-5.91z"/>
                </g>
                <circle cx="23.5" cy="74.5" r="8.5" fill="#32373F"/>
                <circle cx="24" cy="75" r="5" fill="#24282D"/>
                <circle cx="72.5" cy="74.5" r="8.5" fill="#32373F"/>
                <circle cx="72" cy="75" r="5" fill="#24282D"/>
                <path fill="#FFF89B" d="M89.268 63h5.464c.867 0 1.698-.369 2.311-1.026 1.276-1.366 1.276-3.582 0-4.948A3.163 3.163 0 0 0 94.733 56h-5.465c-.867 0-1.698.369-2.311 1.026-1.276 1.366-1.276 3.582 0 4.948A3.163 3.163 0 0 0 89.267 63z"/>
                <g fill="#E0782B">
                    <path d="M38.67 23.8c-.922 0-1.67-.755-1.67-1.685 0-.446.176-.875.49-1.19l1.67-1.684a3.097 3.097 0 0 0 0-4.354v-.002c-2.494-2.52-2.494-6.599 0-9.118l3.34-3.368a1.66 1.66 0 0 1 2.36-.042 1.694 1.694 0 0 1 0 2.423l-3.34 3.368a3.102 3.102 0 0 0 0 4.356c2.494 2.52 2.494 6.599 0 9.118l-1.67 1.684a1.663 1.663 0 0 1-1.18.494zM48.69 22.116c-.922 0-1.67-.755-1.67-1.685 0-.447.177-.875.49-1.19l1.67-1.685a3.097 3.097 0 0 0 0-4.355c-2.494-2.52-2.494-6.599 0-9.118L52.52.714a1.66 1.66 0 0 1 2.361-.04 1.694 1.694 0 0 1 0 2.422l-3.34 3.368a3.102 3.102 0 0 0 0 4.356c2.493 2.519 2.493 6.599 0 9.118l-1.67 1.684a1.663 1.663 0 0 1-1.18.494zM92.111 22.116c-.922 0-1.67-.755-1.67-1.685 0-.447.176-.875.49-1.19l1.67-1.685a3.097 3.097 0 0 0 0-4.355c-2.494-2.52-2.494-6.599 0-9.118L95.94.714a1.66 1.66 0 0 1 2.36-.04 1.694 1.694 0 0 1 0 2.422l-3.34 3.368a3.102 3.102 0 0 0 0 4.356c2.494 2.519 2.494 6.599 0 9.118l-1.67 1.684a1.663 1.663 0 0 1-1.18.494z"/>
                </g>
            </g>
        </g>
    </g>
</svg>
