<?xml version="1.0" encoding="UTF-8"?>
<svg width="25px" height="25px" viewBox="0 0 25 25" version="1.1" xmlns="http://www.w3.org/2000/svg" xmlns:xlink="http://www.w3.org/1999/xlink">
    <!-- Generator: sketchtool 42 (36781) - http://www.bohemiancoding.com/sketch -->
    <title>682B847C-DA6E-4DE6-AB80-0893EBF96FD4</title>
    <desc>Created with sketchtool.</desc>
    <defs></defs>
    <g id="Footer" stroke="none" stroke-width="1" fill="none" fill-rule="evenodd" opacity="0.4">
        <g id="footer_V3" transform="translate(-327.000000, -613.000000)" fill-rule="nonzero" fill="#FFFFFF">
            <g id="Group-4" transform="translate(246.000000, 613.000000)">
                <g id="google-plus-social-logotype" transform="translate(81.000000, 0.000000)">
                    <g id="Capa_1">
                        <g id="Group">
                            <path d="M13.0220445,9.33768362 C13.0220445,7.9428582 12.1905021,5.77372453 10.5873278,5.77372453 C10.0833378,5.77372453 9.54331902,6.0253078 9.23326632,6.41297662 C8.90427281,6.82040976 8.80874528,7.34169359 8.80874528,7.84691891 C8.80874528,9.14395214 9.56184807,11.2935274 11.2249329,11.2935274 C11.7077175,11.2935274 12.2279719,11.0623261 12.5388482,10.7520675 C12.9833394,10.3051057 13.0220445,9.68664732 13.0220445,9.33768362 Z" id="Shape"></path>
                            <path d="M11.9778298,14.431936 C11.8238328,14.4125835 11.7270701,14.4125835 11.5339562,14.4125835 C11.3595773,14.4125835 10.3155685,14.450671 9.50420215,14.7236656 C9.07926936,14.8776625 7.84255847,15.3429475 7.84255847,16.7180086 C7.84255847,18.0936873 9.17623803,19.0825207 11.2440796,19.0825207 C13.1000724,19.0825207 14.0860235,18.1894207 14.0860235,16.9901797 C14.0858176,15.9992875 13.4480067,15.4782095 11.9778298,14.431936 Z" id="Shape"></path>
                            <path d="M12.4681122,0 C5.58214286,0 0,5.58214286 0,12.4681122 C0,19.3540816 5.58214286,24.9362245 12.4681122,24.9362245 C19.3540816,24.9362245 24.9362245,19.3540816 24.9362245,12.4681122 C24.9362245,5.58214286 19.3540816,0 12.4681122,0 Z M10.2962159,19.894093 C7.49297713,19.894093 6.14076852,18.5583546 6.14076852,17.1240006 C6.14076852,16.4271025 6.48808519,15.4399161 7.62865092,14.7615472 C8.82645082,14.0253264 10.4510364,13.9291812 11.3212839,13.8692707 C11.0497305,13.5209246 10.7415307,13.1530201 10.7415307,12.552679 C10.7415307,12.2238914 10.8382935,12.029954 10.933821,11.7973116 C10.7209428,11.8170759 10.5093,11.8360167 10.3157744,11.8360167 C8.26769714,11.8360167 7.10798473,10.3046939 7.10798473,8.79416493 C7.10798473,7.90435896 7.51335908,6.91573141 8.34428386,6.19906908 C9.44655623,5.28867528 10.9527618,5.04162133 11.9973882,5.04162133 L15.8057249,5.04162133 L14.5488379,5.83137045 L13.3514498,5.83137045 C13.7957351,6.19906908 14.7221874,6.97378908 14.7221874,8.44664237 C14.7221874,9.87893764 13.9114387,10.5587478 13.1000724,11.1971763 C12.8482832,11.4485537 12.5582007,11.7196954 12.5582007,12.1464811 C12.5582007,12.5716198 12.8484891,12.8038505 13.0605437,12.9796706 L13.75703,13.5207187 C14.6077191,14.2369693 15.3809979,14.8957798 15.3805862,16.233577 C15.3803803,18.0549822 13.6203268,19.894093 10.2962159,19.894093 Z M18.6375807,12.231303 L18.6375807,14.1797351 L17.6810702,14.1797351 L17.6810702,12.231303 L15.7472554,12.231303 L15.7472554,11.2642927 L17.6810702,11.2642927 L17.6810702,9.32780146 L18.6375807,9.32780146 L18.6375807,11.2642927 L20.5806601,11.2642927 L20.5806601,12.231303 L18.6375807,12.231303 Z" id="Shape"></path>
                        </g>
                    </g>
                </g>
            </g>
        </g>
    </g>
</svg>